<?xml version="1.0" encoding="UTF-8" standalone="no"?>
<!DOCTYPE svg PUBLIC "-//W3C//DTD SVG 1.1//EN"
 "http://www.w3.org/Graphics/SVG/1.1/DTD/svg11.dtd">
<!-- Generated by graphviz version 2.40.1 (20161225.0304)
 -->
<!-- Title: fsm Pages: 1 -->
<svg width="582pt" height="476pt"
 viewBox="0.00 0.00 582.33 476.00" xmlns="http://www.w3.org/2000/svg" xmlns:xlink="http://www.w3.org/1999/xlink">
<g id="graph0" class="graph" transform="scale(1 1) rotate(0) translate(4 472)">
<title>fsm</title>
<polygon fill="#ffffff" stroke="transparent" points="-4,4 -4,-472 578.3331,-472 578.3331,4 -4,4"/>
<!-- ready -->
<g id="node1" class="node">
<title>ready</title>
<ellipse fill="none" stroke="#696969" cx="544.4654" cy="-450" rx="29.736" ry="18"/>
<text text-anchor="middle" x="544.4654" y="-446.1" font-family="Helvetica,sans-Serif" font-size="13.00" fill="#696969">ready</text>
</g>
<!-- pin -->
<g id="node2" class="node">
<title>pin</title>
<ellipse fill="none" stroke="#696969" cx="517.4654" cy="-378" rx="27" ry="18"/>
<text text-anchor="middle" x="517.4654" y="-374.1" font-family="Helvetica,sans-Serif" font-size="13.00" fill="#696969">pin</text>
</g>
<!-- ready&#45;&gt;pin -->
<g id="edge1" class="edge">
<title>ready&#45;&gt;pin</title>
<path fill="none" stroke="#0000ff" d="M529.5316,-434.3771C529.5316,-434.3771 529.5316,-404.3421 529.5316,-404.3421"/>
<polygon fill="#0000ff" stroke="#0000ff" points="533.0317,-404.3421 529.5316,-394.3421 526.0317,-404.3422 533.0317,-404.3421"/>
</g>
<!-- action&#45;selection -->
<g id="node3" class="node">
<title>action&#45;selection</title>
<ellipse fill="none" stroke="#696969" cx="399.4654" cy="-234" rx="65.4073" ry="18"/>
<text text-anchor="middle" x="399.4654" y="-230.1" font-family="Helvetica,sans-Serif" font-size="13.00" fill="#696969">action&#45;selection</text>
</g>
<!-- pin&#45;&gt;action&#45;selection -->
<g id="edge2" class="edge">
<title>pin&#45;&gt;action&#45;selection</title>
<path fill="none" stroke="#0000ff" d="M533.5103,-363.4001C533.5103,-326.7911 533.5103,-234 533.5103,-234 533.5103,-234 475.3098,-234 475.3098,-234"/>
<polygon fill="#0000ff" stroke="#0000ff" points="475.3098,-230.5001 465.3098,-234 475.3098,-237.5001 475.3098,-230.5001"/>
</g>
<!-- pin&#45;error -->
<g id="node4" class="node">
<title>pin&#45;error</title>
<ellipse fill="none" stroke="#696969" cx="482.4654" cy="-306" rx="40.1798" ry="18"/>
<text text-anchor="middle" x="482.4654" y="-302.1" font-family="Helvetica,sans-Serif" font-size="13.00" fill="#696969">pin&#45;error</text>
</g>
<!-- pin&#45;&gt;pin&#45;error -->
<g id="edge3" class="edge">
<title>pin&#45;&gt;pin&#45;error</title>
<path fill="none" stroke="#dc143c" d="M501.162,-363.4297C501.162,-363.4297 501.162,-332.0518 501.162,-332.0518"/>
<polygon fill="#dc143c" stroke="#dc143c" points="504.6621,-332.0518 501.162,-322.0518 497.6621,-332.0518 504.6621,-332.0518"/>
</g>
<!-- return&#45;card -->
<g id="node5" class="node">
<title>return&#45;card</title>
<ellipse fill="none" stroke="#696969" cx="409.4654" cy="-18" rx="48.9745" ry="18"/>
<text text-anchor="middle" x="409.4654" y="-14.1" font-family="Helvetica,sans-Serif" font-size="13.00" fill="#696969">return&#45;card</text>
</g>
<!-- pin&#45;&gt;return&#45;card -->
<g id="edge21" class="edge">
<title>pin&#45;&gt;return&#45;card</title>
<path fill="none" stroke="#ff8c00" d="M538.9879,-366.8312C538.9879,-306.067 538.9879,-18 538.9879,-18 538.9879,-18 468.8018,-18 468.8018,-18"/>
<polygon fill="#ff8c00" stroke="#ff8c00" points="468.8018,-14.5001 458.8018,-18 468.8018,-21.5001 468.8018,-14.5001"/>
</g>
<!-- action&#45;selection&#45;&gt;return&#45;card -->
<g id="edge18" class="edge">
<title>action&#45;selection&#45;&gt;return&#45;card</title>
<path fill="none" stroke="#ff8c00" d="M447.751,-221.768C447.751,-221.768 447.751,-39.3102 447.751,-39.3102"/>
<polygon fill="#ff8c00" stroke="#ff8c00" points="451.2511,-39.3101 447.751,-29.3102 444.2511,-39.3102 451.2511,-39.3101"/>
</g>
<!-- deposit&#45;transaction -->
<g id="node6" class="node">
<title>deposit&#45;transaction</title>
<ellipse fill="#ffff00" stroke="#696969" cx="311.4654" cy="-162" rx="77.4308" ry="18"/>
<text text-anchor="middle" x="311.4654" y="-158.1" font-family="Helvetica,sans-Serif" font-size="13.00" fill="#696969">deposit&#45;transaction</text>
</g>
<!-- action&#45;selection&#45;&gt;deposit&#45;transaction -->
<g id="edge7" class="edge">
<title>action&#45;selection&#45;&gt;deposit&#45;transaction</title>
<path fill="none" stroke="#0000ff" d="M361.4713,-219.0816C361.4713,-219.0816 361.4713,-185.9223 361.4713,-185.9223"/>
<polygon fill="#0000ff" stroke="#0000ff" points="364.9714,-185.9223 361.4713,-175.9223 357.9714,-185.9224 364.9714,-185.9223"/>
</g>
<!-- withdrawal&#45;transaction -->
<g id="node8" class="node">
<title>withdrawal&#45;transaction</title>
<ellipse fill="#ffff00" stroke="#696969" cx="89.4654" cy="-162" rx="89.4308" ry="18"/>
<text text-anchor="middle" x="89.4654" y="-158.1" font-family="Helvetica,sans-Serif" font-size="13.00" fill="#696969">withdrawal&#45;transaction</text>
</g>
<!-- action&#45;selection&#45;&gt;withdrawal&#45;transaction -->
<g id="edge9" class="edge">
<title>action&#45;selection&#45;&gt;withdrawal&#45;transaction</title>
<path fill="none" stroke="#0000ff" d="M337.4773,-240C247.0115,-240 89.4654,-240 89.4654,-240 89.4654,-240 89.4654,-190.0908 89.4654,-190.0908"/>
<polygon fill="#0000ff" stroke="#0000ff" points="92.9655,-190.0908 89.4654,-180.0908 85.9655,-190.0909 92.9655,-190.0908"/>
</g>
<!-- confirm&#45;cancel -->
<g id="node9" class="node">
<title>confirm&#45;cancel</title>
<ellipse fill="none" stroke="#696969" cx="364.4654" cy="-90" rx="61.7645" ry="18"/>
<text text-anchor="middle" x="364.4654" y="-86.1" font-family="Helvetica,sans-Serif" font-size="13.00" fill="#696969">confirm&#45;cancel</text>
</g>
<!-- action&#45;selection&#45;&gt;confirm&#45;cancel -->
<g id="edge13" class="edge">
<title>action&#45;selection&#45;&gt;confirm&#45;cancel</title>
<path fill="none" stroke="#a0522d" d="M407.6392,-216.0535C407.6392,-216.0535 407.6392,-113.0519 407.6392,-113.0519"/>
<polygon fill="#a0522d" stroke="#a0522d" points="411.1393,-113.0519 407.6392,-103.0519 404.1393,-113.052 411.1393,-113.0519"/>
</g>
<!-- pin&#45;error&#45;&gt;action&#45;selection -->
<g id="edge4" class="edge">
<title>pin&#45;error&#45;&gt;action&#45;selection</title>
<path fill="none" stroke="#0000ff" d="M453.6473,-293.4586C453.6473,-293.4586 453.6473,-254.5272 453.6473,-254.5272"/>
<polygon fill="#0000ff" stroke="#0000ff" points="457.1474,-254.5272 453.6473,-244.5272 450.1474,-254.5273 457.1474,-254.5272"/>
</g>
<!-- pin&#45;error&#45;&gt;pin&#45;error -->
<g id="edge5" class="edge">
<title>pin&#45;error&#45;&gt;pin&#45;error</title>
<path fill="none" stroke="#dc143c" d="M511.8586,-318.5911C511.8586,-328.9724 511.8586,-342 511.8586,-342 511.8586,-342 528.0328,-342 528.0328,-342 528.0328,-342 528.0328,-270 528.0328,-270 528.0328,-270 508.1462,-270 508.1462,-270 508.1462,-270 508.1462,-281.7718 508.1462,-281.7718"/>
<polygon fill="#dc143c" stroke="#dc143c" points="504.6463,-281.7718 508.1462,-291.7718 511.6463,-281.7719 504.6463,-281.7718"/>
</g>
<!-- pin&#45;error&#45;&gt;return&#45;card -->
<g id="edge22" class="edge">
<title>pin&#45;error&#45;&gt;return&#45;card</title>
<path fill="none" stroke="#ff8c00" d="M493.7371,-288.5473C493.7371,-227.4674 493.7371,-27 493.7371,-27 493.7371,-27 462.095,-27 462.095,-27"/>
<polygon fill="#ff8c00" stroke="#ff8c00" points="462.0951,-23.5001 452.095,-27 462.095,-30.5001 462.0951,-23.5001"/>
</g>
<!-- pin&#45;error&#45;&gt;confirm&#45;cancel -->
<g id="edge16" class="edge">
<title>pin&#45;error&#45;&gt;confirm&#45;cancel</title>
<path fill="none" stroke="#a0522d" d="M479.3281,-287.9555C479.3281,-236.0421 479.3281,-90 479.3281,-90 479.3281,-90 436.6032,-90 436.6032,-90"/>
<polygon fill="#a0522d" stroke="#a0522d" points="436.6032,-86.5001 426.6032,-90 436.6032,-93.5001 436.6032,-86.5001"/>
</g>
<!-- return&#45;card&#45;&gt;ready -->
<g id="edge6" class="edge">
<title>return&#45;card&#45;&gt;ready</title>
<path fill="none" stroke="#0000ff" d="M452.0294,-9C496.3564,-9 559.3993,-9 559.3993,-9 559.3993,-9 559.3993,-424.3046 559.3993,-424.3046"/>
<polygon fill="#0000ff" stroke="#0000ff" points="555.8994,-424.3045 559.3993,-434.3046 562.8994,-424.3046 555.8994,-424.3045"/>
</g>
<!-- deposit&#45;transaction&#45;&gt;return&#45;card -->
<g id="edge19" class="edge">
<title>deposit&#45;transaction&#45;&gt;return&#45;card</title>
<path fill="none" stroke="#ff8c00" d="M389.2131,-162C414.9045,-162 437.0492,-162 437.0492,-162 437.0492,-162 437.0492,-43.1384 437.0492,-43.1384"/>
<polygon fill="#ff8c00" stroke="#ff8c00" points="440.5493,-43.1383 437.0492,-33.1384 433.5493,-43.1384 440.5493,-43.1383"/>
</g>
<!-- continue -->
<g id="node7" class="node">
<title>continue</title>
<ellipse fill="none" stroke="#696969" cx="206.4654" cy="-90" rx="40.2111" ry="18"/>
<text text-anchor="middle" x="206.4654" y="-86.1" font-family="Helvetica,sans-Serif" font-size="13.00" fill="#696969">continue</text>
</g>
<!-- deposit&#45;transaction&#45;&gt;continue -->
<g id="edge8" class="edge">
<title>deposit&#45;transaction&#45;&gt;continue</title>
<path fill="none" stroke="#0000ff" d="M240.2854,-154.8331C240.2854,-154.8331 240.2854,-109.8744 240.2854,-109.8744"/>
<polygon fill="#0000ff" stroke="#0000ff" points="243.7855,-109.8744 240.2854,-99.8744 236.7855,-109.8745 243.7855,-109.8744"/>
</g>
<!-- deposit&#45;transaction&#45;&gt;confirm&#45;cancel -->
<g id="edge14" class="edge">
<title>deposit&#45;transaction&#45;&gt;confirm&#45;cancel</title>
<path fill="none" stroke="#a0522d" d="M360.1483,-147.7751C360.1483,-147.7751 360.1483,-118.0336 360.1483,-118.0336"/>
<polygon fill="#a0522d" stroke="#a0522d" points="363.6484,-118.0336 360.1483,-108.0336 356.6484,-118.0337 363.6484,-118.0336"/>
</g>
<!-- continue&#45;&gt;action&#45;selection -->
<g id="edge11" class="edge">
<title>continue&#45;&gt;action&#45;selection</title>
<path fill="none" stroke="#0000ff" d="M206.4654,-108.0411C206.4654,-145.4476 206.4654,-228 206.4654,-228 206.4654,-228 327.6026,-228 327.6026,-228"/>
<polygon fill="#0000ff" stroke="#0000ff" points="327.6027,-231.5001 337.6026,-228 327.6026,-224.5001 327.6027,-231.5001"/>
</g>
<!-- continue&#45;&gt;return&#45;card -->
<g id="edge12" class="edge">
<title>continue&#45;&gt;return&#45;card</title>
<path fill="none" stroke="#0000ff" d="M206.4654,-71.9652C206.4654,-52.4238 206.4654,-24 206.4654,-24 206.4654,-24 353.1476,-24 353.1476,-24"/>
<polygon fill="#0000ff" stroke="#0000ff" points="353.1476,-27.5001 363.1476,-24 353.1475,-20.5001 353.1476,-27.5001"/>
</g>
<!-- withdrawal&#45;transaction&#45;&gt;return&#45;card -->
<g id="edge20" class="edge">
<title>withdrawal&#45;transaction&#45;&gt;return&#45;card</title>
<path fill="none" stroke="#ff8c00" d="M83.18,-143.9065C83.18,-104.0111 83.18,-12 83.18,-12 83.18,-12 353.0632,-12 353.0632,-12"/>
<polygon fill="#ff8c00" stroke="#ff8c00" points="353.0632,-15.5001 363.0632,-12 353.0631,-8.5001 353.0632,-15.5001"/>
</g>
<!-- withdrawal&#45;transaction&#45;&gt;continue -->
<g id="edge10" class="edge">
<title>withdrawal&#45;transaction&#45;&gt;continue</title>
<path fill="none" stroke="#0000ff" d="M170.5503,-154.2947C170.5503,-154.2947 170.5503,-108.312 170.5503,-108.312"/>
<polygon fill="#0000ff" stroke="#0000ff" points="174.0504,-108.312 170.5503,-98.312 167.0504,-108.3121 174.0504,-108.312"/>
</g>
<!-- withdrawal&#45;transaction&#45;&gt;confirm&#45;cancel -->
<g id="edge15" class="edge">
<title>withdrawal&#45;transaction&#45;&gt;confirm&#45;cancel</title>
<path fill="none" stroke="#a0522d" d="M174.7405,-156.375C174.7405,-146.25 174.7405,-126 174.7405,-126 174.7405,-126 331.3658,-126 331.3658,-126 331.3658,-126 331.3658,-115.4762 331.3658,-115.4762"/>
<polygon fill="#a0522d" stroke="#a0522d" points="334.8659,-115.4761 331.3658,-105.4762 327.8659,-115.4762 334.8659,-115.4761"/>
</g>
<!-- confirm&#45;cancel&#45;&gt;return&#45;card -->
<g id="edge17" class="edge">
<title>confirm&#45;cancel&#45;&gt;return&#45;card</title>
<path fill="none" stroke="#0000ff" d="M393.4128,-74.0209C393.4128,-74.0209 393.4128,-45.1915 393.4128,-45.1915"/>
<polygon fill="#0000ff" stroke="#0000ff" points="396.9129,-45.1914 393.4128,-35.1915 389.9129,-45.1915 396.9129,-45.1914"/>
</g>
</g>
</svg>
