<?xml version="1.0" encoding="UTF-8" standalone="no"?>
<!DOCTYPE svg PUBLIC "-//W3C//DTD SVG 1.1//EN"
 "http://www.w3.org/Graphics/SVG/1.1/DTD/svg11.dtd">
<!-- Generated by graphviz version 2.40.1 (20161225.0304)
 -->
<!-- Title: fsm Pages: 1 -->
<svg width="549pt" height="620pt"
 viewBox="0.00 0.00 548.71 620.00" xmlns="http://www.w3.org/2000/svg" xmlns:xlink="http://www.w3.org/1999/xlink">
<g id="graph0" class="graph" transform="scale(1 1) rotate(0) translate(4 616)">
<title>fsm</title>
<polygon fill="#ffffff" stroke="transparent" points="-4,4 -4,-616 544.71,-616 544.71,4 -4,4"/>
<!-- account&#45;selection -->
<g id="node1" class="node">
<title>account&#45;selection</title>
<ellipse fill="none" stroke="#696969" cx="72.1277" cy="-522" rx="72.2556" ry="18"/>
<text text-anchor="middle" x="72.1277" y="-518.1" font-family="Helvetica,sans-Serif" font-size="13.00" fill="#696969">account&#45;selection</text>
</g>
<!-- amount -->
<g id="node2" class="node">
<title>amount</title>
<ellipse fill="none" stroke="#696969" cx="199.1277" cy="-450" rx="36.5836" ry="18"/>
<text text-anchor="middle" x="199.1277" y="-446.1" font-family="Helvetica,sans-Serif" font-size="13.00" fill="#696969">amount</text>
</g>
<!-- account&#45;selection&#45;&gt;amount -->
<g id="edge2" class="edge">
<title>account&#45;selection&#45;&gt;amount</title>
<path fill="none" stroke="#0000ff" d="M140.4604,-516C170.5204,-516 199.1277,-516 199.1277,-516 199.1277,-516 199.1277,-478.0348 199.1277,-478.0348"/>
<polygon fill="#0000ff" stroke="#0000ff" points="202.6278,-478.0348 199.1277,-468.0348 195.6278,-478.0348 202.6278,-478.0348"/>
</g>
<!-- confirm&#45;cancel -->
<g id="node8" class="node">
<title>confirm&#45;cancel</title>
<ellipse fill="none" stroke="#696969" cx="92.1277" cy="-90" rx="61.7645" ry="18"/>
<text text-anchor="middle" x="92.1277" y="-86.1" font-family="Helvetica,sans-Serif" font-size="13.00" fill="#696969">confirm&#45;cancel</text>
</g>
<!-- account&#45;selection&#45;&gt;confirm&#45;cancel -->
<g id="edge10" class="edge">
<title>account&#45;selection&#45;&gt;confirm&#45;cancel</title>
<path fill="none" stroke="#a0522d" d="M35.5187,-506.3697C35.5187,-506.3697 35.5187,-107.4466 35.5187,-107.4466"/>
<polygon fill="#a0522d" stroke="#a0522d" points="39.0188,-107.4466 35.5187,-97.4466 32.0188,-107.4467 39.0188,-107.4466"/>
</g>
<!-- transaction&#45;exit -->
<g id="node9" class="node">
<title>transaction&#45;exit</title>
<ellipse fill="none" stroke="#696969" cx="182.1277" cy="-18" rx="64.2269" ry="18"/>
<text text-anchor="middle" x="182.1277" y="-14.1" font-family="Helvetica,sans-Serif" font-size="13.00" fill="#696969">transaction&#45;exit</text>
</g>
<!-- account&#45;selection&#45;&gt;transaction&#45;exit -->
<g id="edge20" class="edge">
<title>account&#45;selection&#45;&gt;transaction&#45;exit</title>
<path fill="none" stroke="#ff8c00" d="M15.1228,-510.5263C15.1228,-435.5057 15.1228,-18 15.1228,-18 15.1228,-18 107.5592,-18 107.5592,-18"/>
<polygon fill="#ff8c00" stroke="#ff8c00" points="107.5593,-21.5001 117.5592,-18 107.5592,-14.5001 107.5593,-21.5001"/>
</g>
<!-- transaction&#45;validate -->
<g id="node3" class="node">
<title>transaction&#45;validate</title>
<ellipse fill="none" stroke="#696969" cx="141.1277" cy="-378" rx="79.4874" ry="18"/>
<text text-anchor="middle" x="141.1277" y="-374.1" font-family="Helvetica,sans-Serif" font-size="13.00" fill="#696969">transaction&#45;validate</text>
</g>
<!-- amount&#45;&gt;transaction&#45;validate -->
<g id="edge3" class="edge">
<title>amount&#45;&gt;transaction&#45;validate</title>
<path fill="none" stroke="#0000ff" d="M201.1093,-431.8314C201.1093,-431.8314 201.1093,-399.8389 201.1093,-399.8389"/>
<polygon fill="#0000ff" stroke="#0000ff" points="204.6094,-399.8389 201.1093,-389.8389 197.6094,-399.839 204.6094,-399.8389"/>
</g>
<!-- amount&#45;&gt;confirm&#45;cancel -->
<g id="edge11" class="edge">
<title>amount&#45;&gt;confirm&#45;cancel</title>
<path fill="none" stroke="#a0522d" d="M164.4776,-456C120.7954,-456 51.3381,-456 51.3381,-456 51.3381,-456 51.3381,-113.9007 51.3381,-113.9007"/>
<polygon fill="#a0522d" stroke="#a0522d" points="54.8382,-113.9007 51.3381,-103.9007 47.8382,-113.9007 54.8382,-113.9007"/>
</g>
<!-- amount&#45;&gt;confirm&#45;cancel -->
<g id="edge13" class="edge">
<title>amount&#45;&gt;confirm&#45;cancel</title>
<path fill="none" stroke="#a0522d" d="M164.6284,-444C122.4503,-444 56.6112,-444 56.6112,-444 56.6112,-444 56.6112,-114.7602 56.6112,-114.7602"/>
<polygon fill="#a0522d" stroke="#a0522d" points="60.1113,-114.7602 56.6112,-104.7602 53.1113,-114.7603 60.1113,-114.7602"/>
</g>
<!-- amount&#45;&gt;transaction&#45;exit -->
<g id="edge21" class="edge">
<title>amount&#45;&gt;transaction&#45;exit</title>
<path fill="none" stroke="#ff8c00" d="M228.0202,-438.7402C228.0202,-399.3338 228.0202,-270 228.0202,-270 228.0202,-270 166.379,-270 166.379,-270 166.379,-270 166.379,-45.7202 166.379,-45.7202"/>
<polygon fill="#ff8c00" stroke="#ff8c00" points="169.8791,-45.7201 166.379,-35.7202 162.8791,-45.7202 169.8791,-45.7201"/>
</g>
<!-- transaction&#45;validate&#45;&gt;amount -->
<g id="edge4" class="edge">
<title>transaction&#45;validate&#45;&gt;amount</title>
<path fill="none" stroke="#dc143c" d="M181.8476,-393.6229C181.8476,-393.6229 181.8476,-423.909 181.8476,-423.909"/>
<polygon fill="#dc143c" stroke="#dc143c" points="178.3477,-423.909 181.8476,-433.909 185.3477,-423.9091 178.3477,-423.909"/>
</g>
<!-- transaction&#45;verify -->
<g id="node4" class="node">
<title>transaction&#45;verify</title>
<ellipse fill="none" stroke="#696969" cx="149.1277" cy="-306" rx="70.5598" ry="18"/>
<text text-anchor="middle" x="149.1277" y="-302.1" font-family="Helvetica,sans-Serif" font-size="13.00" fill="#696969">transaction&#45;verify</text>
</g>
<!-- transaction&#45;validate&#45;&gt;transaction&#45;verify -->
<g id="edge5" class="edge">
<title>transaction&#45;validate&#45;&gt;transaction&#45;verify</title>
<path fill="none" stroke="#0000ff" d="M149.1277,-359.8314C149.1277,-359.8314 149.1277,-334.4133 149.1277,-334.4133"/>
<polygon fill="#0000ff" stroke="#0000ff" points="152.6278,-334.4132 149.1277,-324.4133 145.6278,-334.4133 152.6278,-334.4132"/>
</g>
<!-- transaction&#45;validate&#45;&gt;confirm&#45;cancel -->
<g id="edge12" class="edge">
<title>transaction&#45;validate&#45;&gt;confirm&#45;cancel</title>
<path fill="none" stroke="#a0522d" d="M70.1162,-369.9966C70.1162,-369.9966 70.1162,-116.9969 70.1162,-116.9969"/>
<polygon fill="#a0522d" stroke="#a0522d" points="73.6163,-116.9969 70.1162,-106.9969 66.6163,-116.9969 73.6163,-116.9969"/>
</g>
<!-- transaction&#45;exec -->
<g id="node5" class="node">
<title>transaction&#45;exec</title>
<ellipse fill="none" stroke="#696969" cx="241.1277" cy="-234" rx="68.6281" ry="18"/>
<text text-anchor="middle" x="241.1277" y="-230.1" font-family="Helvetica,sans-Serif" font-size="13.00" fill="#696969">transaction&#45;exec</text>
</g>
<!-- transaction&#45;verify&#45;&gt;transaction&#45;exec -->
<g id="edge6" class="edge">
<title>transaction&#45;verify&#45;&gt;transaction&#45;exec</title>
<path fill="none" stroke="#0000ff" d="M196.2355,-292.4574C196.2355,-292.4574 196.2355,-257.973 196.2355,-257.973"/>
<polygon fill="#0000ff" stroke="#0000ff" points="199.7356,-257.973 196.2355,-247.973 192.7356,-257.9731 199.7356,-257.973"/>
</g>
<!-- transaction&#45;verify&#45;&gt;transaction&#45;exit -->
<g id="edge22" class="edge">
<title>transaction&#45;verify&#45;&gt;transaction&#45;exit</title>
<path fill="none" stroke="#ff8c00" d="M160.1944,-287.9843C160.1944,-287.9843 160.1944,-44.9156 160.1944,-44.9156"/>
<polygon fill="#ff8c00" stroke="#ff8c00" points="163.6945,-44.9156 160.1944,-34.9156 156.6945,-44.9157 163.6945,-44.9156"/>
</g>
<!-- transaction&#45;error -->
<g id="node6" class="node">
<title>transaction&#45;error</title>
<ellipse fill="none" stroke="#696969" cx="279.1277" cy="-162" rx="68.6124" ry="18"/>
<text text-anchor="middle" x="279.1277" y="-158.1" font-family="Helvetica,sans-Serif" font-size="13.00" fill="#696969">transaction&#45;error</text>
</g>
<!-- transaction&#45;exec&#45;&gt;transaction&#45;error -->
<g id="edge9" class="edge">
<title>transaction&#45;exec&#45;&gt;transaction&#45;error</title>
<path fill="none" stroke="#dc143c" d="M260.1316,-216.5708C260.1316,-216.5708 260.1316,-189.5182 260.1316,-189.5182"/>
<polygon fill="#dc143c" stroke="#dc143c" points="263.6317,-189.5182 260.1316,-179.5182 256.6317,-189.5183 263.6317,-189.5182"/>
</g>
<!-- transaction&#45;completed -->
<g id="node7" class="node">
<title>transaction&#45;completed</title>
<ellipse fill="none" stroke="#696969" cx="452.1277" cy="-90" rx="88.6647" ry="18"/>
<text text-anchor="middle" x="452.1277" y="-86.1" font-family="Helvetica,sans-Serif" font-size="13.00" fill="#696969">transaction&#45;completed</text>
</g>
<!-- transaction&#45;exec&#45;&gt;transaction&#45;completed -->
<g id="edge8" class="edge">
<title>transaction&#45;exec&#45;&gt;transaction&#45;completed</title>
<path fill="none" stroke="#0000ff" d="M309.7347,-234C361.1245,-234 422.6002,-234 422.6002,-234 422.6002,-234 422.6002,-117.0842 422.6002,-117.0842"/>
<polygon fill="#0000ff" stroke="#0000ff" points="426.1003,-117.0841 422.6002,-107.0842 419.1003,-117.0842 426.1003,-117.0841"/>
</g>
<!-- transaction&#45;exec&#45;&gt;confirm&#45;cancel -->
<g id="edge15" class="edge">
<title>transaction&#45;exec&#45;&gt;confirm&#45;cancel</title>
<path fill="none" stroke="#a0522d" d="M185.2329,-223.4852C185.2329,-191.896 185.2329,-100 185.2329,-100 185.2329,-100 153.5821,-100 153.5821,-100"/>
<polygon fill="#a0522d" stroke="#a0522d" points="153.5821,-96.5001 143.5821,-100 153.582,-103.5001 153.5821,-96.5001"/>
</g>
<!-- transaction&#45;exec&#45;&gt;transaction&#45;exit -->
<g id="edge23" class="edge">
<title>transaction&#45;exec&#45;&gt;transaction&#45;exit</title>
<path fill="none" stroke="#ff8c00" d="M197.9022,-219.8276C197.9022,-219.8276 197.9022,-45.4704 197.9022,-45.4704"/>
<polygon fill="#ff8c00" stroke="#ff8c00" points="201.4023,-45.4704 197.9022,-35.4704 194.4023,-45.4704 201.4023,-45.4704"/>
</g>
<!-- transaction&#45;error&#45;&gt;account&#45;selection -->
<g id="edge7" class="edge">
<title>transaction&#45;error&#45;&gt;account&#45;selection</title>
<path fill="none" stroke="#0000ff" d="M210.4617,-162C141.714,-162 46.065,-162 46.065,-162 46.065,-162 46.065,-495.1193 46.065,-495.1193"/>
<polygon fill="#0000ff" stroke="#0000ff" points="42.5651,-495.1193 46.065,-505.1193 49.5651,-495.1193 42.5651,-495.1193"/>
</g>
<!-- transaction&#45;error&#45;&gt;confirm&#45;cancel -->
<g id="edge14" class="edge">
<title>transaction&#45;error&#45;&gt;confirm&#45;cancel</title>
<path fill="none" stroke="#a0522d" d="M217.7054,-153.8138C217.7054,-135.5365 217.7054,-93 217.7054,-93 217.7054,-93 163.445,-93 163.445,-93"/>
<polygon fill="#a0522d" stroke="#a0522d" points="163.4451,-89.5001 153.445,-93 163.445,-96.5001 163.4451,-89.5001"/>
</g>
<!-- transaction&#45;error&#45;&gt;transaction&#45;exit -->
<g id="edge24" class="edge">
<title>transaction&#45;error&#45;&gt;transaction&#45;exit</title>
<path fill="none" stroke="#ff8c00" d="M224.8393,-150.7006C224.8393,-150.7006 224.8393,-41.734 224.8393,-41.734"/>
<polygon fill="#ff8c00" stroke="#ff8c00" points="228.3394,-41.7339 224.8393,-31.734 221.3394,-41.734 228.3394,-41.7339"/>
</g>
<!-- transaction&#45;completed&#45;&gt;account&#45;selection -->
<g id="edge16" class="edge">
<title>transaction&#45;completed&#45;&gt;account&#45;selection</title>
<path fill="none" stroke="#0000ff" d="M481.6551,-107.1701C481.6551,-188.15 481.6551,-528 481.6551,-528 481.6551,-528 150.2125,-528 150.2125,-528"/>
<polygon fill="#0000ff" stroke="#0000ff" points="150.2126,-524.5001 140.2125,-528 150.2125,-531.5001 150.2126,-524.5001"/>
</g>
<!-- transaction&#45;completed&#45;&gt;transaction&#45;exit -->
<g id="edge18" class="edge">
<title>transaction&#45;completed&#45;&gt;transaction&#45;exit</title>
<path fill="none" stroke="#0000ff" d="M365.7487,-86C304.0711,-86 231.9732,-86 231.9732,-86 231.9732,-86 231.9732,-39.5353 231.9732,-39.5353"/>
<polygon fill="#0000ff" stroke="#0000ff" points="235.4733,-39.5352 231.9732,-29.5353 228.4733,-39.5353 235.4733,-39.5352"/>
</g>
<!-- transaction&#45;completed&#45;&gt;transaction&#45;exit -->
<g id="edge25" class="edge">
<title>transaction&#45;completed&#45;&gt;transaction&#45;exit</title>
<path fill="none" stroke="#ff8c00" d="M381.7864,-79C319.7382,-79 239.1071,-79 239.1071,-79 239.1071,-79 239.1071,-36.4818 239.1071,-36.4818"/>
<polygon fill="#ff8c00" stroke="#ff8c00" points="242.6072,-36.4818 239.1071,-26.4818 235.6072,-36.4818 242.6072,-36.4818"/>
</g>
<!-- confirm&#45;cancel&#45;&gt;account&#45;selection -->
<g id="edge17" class="edge">
<title>confirm&#45;cancel&#45;&gt;account&#45;selection</title>
<path fill="none" stroke="#0000ff" d="M40.7918,-100.2526C40.7918,-100.2526 40.7918,-495.6233 40.7918,-495.6233"/>
<polygon fill="#0000ff" stroke="#0000ff" points="37.2919,-495.6232 40.7918,-505.6233 44.2919,-495.6233 37.2919,-495.6232"/>
</g>
<!-- confirm&#45;cancel&#45;&gt;transaction&#45;exit -->
<g id="edge19" class="edge">
<title>confirm&#45;cancel&#45;&gt;transaction&#45;exit</title>
<path fill="none" stroke="#0000ff" d="M130.0128,-75.4297C130.0128,-75.4297 130.0128,-38.7986 130.0128,-38.7986"/>
<polygon fill="#0000ff" stroke="#0000ff" points="133.5129,-38.7986 130.0128,-28.7986 126.5129,-38.7986 133.5129,-38.7986"/>
</g>
<!-- confirm&#45;cancel&#45;&gt;transaction&#45;exit -->
<g id="edge26" class="edge">
<title>confirm&#45;cancel&#45;&gt;transaction&#45;exit</title>
<path fill="none" stroke="#ff8c00" d="M142.0113,-79.0647C142.0113,-79.0647 142.0113,-42.2692 142.0113,-42.2692"/>
<polygon fill="#ff8c00" stroke="#ff8c00" points="145.5114,-42.2692 142.0113,-32.2692 138.5114,-42.2693 145.5114,-42.2692"/>
</g>
<!-- none -->
<g id="node10" class="node">
<title>none</title>
<ellipse fill="none" stroke="#696969" cx="72.1277" cy="-594" rx="27.8051" ry="18"/>
<text text-anchor="middle" x="72.1277" y="-590.1" font-family="Helvetica,sans-Serif" font-size="13.00" fill="#696969">none</text>
</g>
<!-- none&#45;&gt;account&#45;selection -->
<g id="edge1" class="edge">
<title>none&#45;&gt;account&#45;selection</title>
<path fill="none" stroke="#0000ff" d="M72.1277,-575.8314C72.1277,-575.8314 72.1277,-550.4133 72.1277,-550.4133"/>
<polygon fill="#0000ff" stroke="#0000ff" points="75.6278,-550.4132 72.1277,-540.4133 68.6278,-550.4133 75.6278,-550.4132"/>
</g>
</g>
</svg>
