<?xml version="1.0" encoding="UTF-8" standalone="no"?>
<!DOCTYPE svg PUBLIC "-//W3C//DTD SVG 1.1//EN"
 "http://www.w3.org/Graphics/SVG/1.1/DTD/svg11.dtd">
<!-- Generated by graphviz version 2.40.1 (20161225.0304)
 -->
<!-- Title: fsm Pages: 1 -->
<svg width="423pt" height="474pt"
 viewBox="0.00 0.00 422.65 474.00" xmlns="http://www.w3.org/2000/svg" xmlns:xlink="http://www.w3.org/1999/xlink">
<g id="graph0" class="graph" transform="scale(1 1) rotate(0) translate(4 470)">
<title>fsm</title>
<polygon fill="#ffffff" stroke="transparent" points="-4,4 -4,-470 418.6501,-470 418.6501,4 -4,4"/>
<!-- account -->
<g id="node1" class="node">
<title>account</title>
<ellipse fill="none" stroke="#000000" cx="259.9049" cy="-362" rx="37.7092" ry="18"/>
<text text-anchor="middle" x="259.9049" y="-357.8" font-family="Times,serif" font-size="14.00" fill="#000000">account</text>
</g>
<!-- amount -->
<g id="node2" class="node">
<title>amount</title>
<ellipse fill="none" stroke="#000000" cx="259.9049" cy="-276" rx="36.7663" ry="18"/>
<text text-anchor="middle" x="259.9049" y="-271.8" font-family="Times,serif" font-size="14.00" fill="#000000">amount</text>
</g>
<!-- account&#45;&gt;amount -->
<g id="edge2" class="edge">
<title>account&#45;&gt;amount</title>
<path fill="none" stroke="#000000" d="M259.9049,-343.7616C259.9049,-332.3597 259.9049,-317.4342 259.9049,-304.494"/>
<polygon fill="#000000" stroke="#000000" points="263.405,-304.2121 259.9049,-294.2121 256.405,-304.2121 263.405,-304.2121"/>
<text text-anchor="middle" x="284.7877" y="-314.8" font-family="Times,serif" font-size="14.00" fill="#000000"> provide </text>
</g>
<!-- cancelled -->
<g id="node7" class="node">
<title>cancelled</title>
<ellipse fill="none" stroke="#000000" cx="313.9049" cy="-18" rx="43.4801" ry="18"/>
<text text-anchor="middle" x="313.9049" y="-13.8" font-family="Times,serif" font-size="14.00" fill="#000000">cancelled</text>
</g>
<!-- account&#45;&gt;cancelled -->
<g id="edge8" class="edge">
<title>account&#45;&gt;cancelled</title>
<path fill="none" stroke="#000000" d="M291.9996,-352.5675C325.0954,-340.6295 371.9049,-316.5731 371.9049,-276 371.9049,-276 371.9049,-276 371.9049,-104 371.9049,-79.857 355.9989,-57.4157 340.8462,-41.5147"/>
<polygon fill="#000000" stroke="#000000" points="343.1015,-38.8216 333.5411,-34.2554 338.1673,-43.7869 343.1015,-38.8216"/>
<text text-anchor="middle" x="393.2775" y="-185.8" font-family="Times,serif" font-size="14.00" fill="#000000"> cancel </text>
</g>
<!-- transaction&#45;validator -->
<g id="node3" class="node">
<title>transaction&#45;validator</title>
<ellipse fill="none" stroke="#000000" cx="178.9049" cy="-190" rx="83.0632" ry="18"/>
<text text-anchor="middle" x="178.9049" y="-185.8" font-family="Times,serif" font-size="14.00" fill="#000000">transaction&#45;validator</text>
</g>
<!-- amount&#45;&gt;transaction&#45;validator -->
<g id="edge3" class="edge">
<title>amount&#45;&gt;transaction&#45;validator</title>
<path fill="none" stroke="#000000" d="M244.2873,-259.4183C232.4955,-246.8986 216.109,-229.5006 202.691,-215.2543"/>
<polygon fill="#000000" stroke="#000000" points="204.9941,-212.5948 195.59,-207.715 199.8985,-217.3942 204.9941,-212.5948"/>
<text text-anchor="middle" x="249.7877" y="-228.8" font-family="Times,serif" font-size="14.00" fill="#000000"> provide </text>
</g>
<!-- amount&#45;&gt;cancelled -->
<g id="edge9" class="edge">
<title>amount&#45;&gt;cancelled</title>
<path fill="none" stroke="#000000" d="M270.5831,-258.5698C273.6905,-252.8319 276.809,-246.3037 278.9049,-240 301.2713,-172.7317 309.5195,-89.1274 312.4234,-46.2564"/>
<polygon fill="#000000" stroke="#000000" points="315.9323,-46.2242 313.0661,-36.0244 308.946,-45.7853 315.9323,-46.2242"/>
<text text-anchor="middle" x="322.2775" y="-142.8" font-family="Times,serif" font-size="14.00" fill="#000000"> cancel </text>
</g>
<!-- transaction&#45;error -->
<g id="node4" class="node">
<title>transaction&#45;error</title>
<ellipse fill="none" stroke="#000000" cx="184.9049" cy="-104" rx="69.0632" ry="18"/>
<text text-anchor="middle" x="184.9049" y="-99.8" font-family="Times,serif" font-size="14.00" fill="#000000">transaction&#45;error</text>
</g>
<!-- transaction&#45;validator&#45;&gt;transaction&#45;error -->
<g id="edge4" class="edge">
<title>transaction&#45;validator&#45;&gt;transaction&#45;error</title>
<path fill="none" stroke="#000000" d="M178.7723,-171.9231C178.8305,-162.4102 179.1045,-150.5596 179.9391,-140 180.1392,-137.4685 180.3991,-134.843 180.6952,-132.2158"/>
<polygon fill="#000000" stroke="#000000" points="184.1703,-132.6321 181.9653,-122.2693 177.2267,-131.7454 184.1703,-132.6321"/>
<text text-anchor="middle" x="236.8878" y="-142.8" font-family="Times,serif" font-size="14.00" fill="#000000"> transaction&#45;invalid </text>
</g>
<!-- transaction -->
<g id="node5" class="node">
<title>transaction</title>
<ellipse fill="none" stroke="#000000" cx="48.9049" cy="-104" rx="48.8101" ry="18"/>
<text text-anchor="middle" x="48.9049" y="-99.8" font-family="Times,serif" font-size="14.00" fill="#000000">transaction</text>
</g>
<!-- transaction&#45;validator&#45;&gt;transaction -->
<g id="edge5" class="edge">
<title>transaction&#45;validator&#45;&gt;transaction</title>
<path fill="none" stroke="#000000" d="M118.3597,-177.5894C102.912,-172.2544 87.1963,-164.6895 74.8288,-154 67.8102,-147.9338 62.4333,-139.4965 58.4452,-131.2787"/>
<polygon fill="#000000" stroke="#000000" points="61.5666,-129.6786 54.3863,-121.888 55.1411,-132.4559 61.5666,-129.6786"/>
<text text-anchor="middle" x="125.443" y="-142.8" font-family="Times,serif" font-size="14.00" fill="#000000"> transaction&#45;valid </text>
</g>
<!-- transaction&#45;error&#45;&gt;account -->
<g id="edge6" class="edge">
<title>transaction&#45;error&#45;&gt;account</title>
<path fill="none" stroke="#000000" d="M133.1159,-115.9532C101.2192,-123.8378 65.549,-133.8159 60.9049,-140 33.7437,-176.1682 54.4204,-202.5637 79.8053,-240 114.9046,-291.7624 179.9568,-327.6079 221.5228,-346.4691"/>
<polygon fill="#000000" stroke="#000000" points="220.2224,-349.7209 230.7834,-350.567 223.055,-343.3197 220.2224,-349.7209"/>
<text text-anchor="middle" x="145.4547" y="-228.8" font-family="Times,serif" font-size="14.00" fill="#000000"> transaction&#45;error&#45;retry </text>
</g>
<!-- transaction&#45;error&#45;&gt;cancelled -->
<g id="edge10" class="edge">
<title>transaction&#45;error&#45;&gt;cancelled</title>
<path fill="none" stroke="#000000" d="M208.8257,-87.0909C222.8205,-77.2878 240.8842,-64.7878 257.1598,-54 264.8613,-48.8953 273.2283,-43.5037 281.1121,-38.4912"/>
<polygon fill="#000000" stroke="#000000" points="283.1671,-41.3328 289.7466,-33.0285 279.4246,-35.4172 283.1671,-41.3328"/>
<text text-anchor="middle" x="279.2775" y="-56.8" font-family="Times,serif" font-size="14.00" fill="#000000"> cancel </text>
</g>
<!-- completed -->
<g id="node6" class="node">
<title>completed</title>
<ellipse fill="none" stroke="#000000" cx="48.9049" cy="-18" rx="46.8805" ry="18"/>
<text text-anchor="middle" x="48.9049" y="-13.8" font-family="Times,serif" font-size="14.00" fill="#000000">completed</text>
</g>
<!-- transaction&#45;&gt;completed -->
<g id="edge7" class="edge">
<title>transaction&#45;&gt;completed</title>
<path fill="none" stroke="#000000" d="M48.9049,-85.7616C48.9049,-74.3597 48.9049,-59.4342 48.9049,-46.494"/>
<polygon fill="#000000" stroke="#000000" points="52.405,-46.2121 48.9049,-36.2121 45.405,-46.2121 52.405,-46.2121"/>
<text text-anchor="middle" x="111.1017" y="-56.8" font-family="Times,serif" font-size="14.00" fill="#000000"> complete&#45;transaction </text>
</g>
<!-- none -->
<g id="node8" class="node">
<title>none</title>
<ellipse fill="none" stroke="#000000" cx="259.9049" cy="-448" rx="27.0958" ry="18"/>
<text text-anchor="middle" x="259.9049" y="-443.8" font-family="Times,serif" font-size="14.00" fill="#000000">none</text>
</g>
<!-- none&#45;&gt;account -->
<g id="edge1" class="edge">
<title>none&#45;&gt;account</title>
<path fill="none" stroke="#000000" d="M259.9049,-429.7616C259.9049,-418.3597 259.9049,-403.4342 259.9049,-390.494"/>
<polygon fill="#000000" stroke="#000000" points="263.405,-390.2121 259.9049,-380.2121 256.405,-390.2121 263.405,-390.2121"/>
<text text-anchor="middle" x="278.9567" y="-400.8" font-family="Times,serif" font-size="14.00" fill="#000000"> begin </text>
</g>
</g>
</svg>
