<?xml version="1.0" encoding="UTF-8" standalone="no"?>
<!DOCTYPE svg PUBLIC "-//W3C//DTD SVG 1.1//EN"
 "http://www.w3.org/Graphics/SVG/1.1/DTD/svg11.dtd">
<!-- Generated by graphviz version 2.40.1 (20161225.0304)
 -->
<!-- Title: fsm Pages: 1 -->
<svg width="738pt" height="736pt"
 viewBox="0.00 0.00 737.79 736.49" xmlns="http://www.w3.org/2000/svg" xmlns:xlink="http://www.w3.org/1999/xlink">
<g id="graph0" class="graph" transform="scale(1 1) rotate(0) translate(4 732.4932)">
<title>fsm</title>
<polygon fill="#ffffff" stroke="transparent" points="-4,4 -4,-732.4932 733.7881,-732.4932 733.7881,4 -4,4"/>
<!-- account&#45;selection -->
<g id="node1" class="node">
<title>account&#45;selection</title>
<ellipse fill="none" stroke="#696969" cx="175" cy="-626.9941" rx="72.2556" ry="18"/>
<text text-anchor="middle" x="175" y="-623.0941" font-family="Helvetica,sans-Serif" font-size="13.00" fill="#696969">account&#45;selection</text>
</g>
<!-- amount -->
<g id="node2" class="node">
<title>amount</title>
<ellipse fill="none" stroke="#696969" cx="223" cy="-543.4951" rx="36.5836" ry="18"/>
<text text-anchor="middle" x="223" y="-539.5951" font-family="Helvetica,sans-Serif" font-size="13.00" fill="#696969">amount</text>
</g>
<!-- account&#45;selection&#45;&gt;amount -->
<g id="edge2" class="edge">
<title>account&#45;selection&#45;&gt;amount</title>
<path fill="none" stroke="#0000ff" d="M185.4153,-608.8761C191.9827,-597.4516 200.5738,-582.5069 207.8843,-569.7898"/>
<polygon fill="#0000ff" stroke="#0000ff" points="210.9845,-571.4196 212.934,-561.0056 204.9158,-567.9309 210.9845,-571.4196"/>
<text text-anchor="middle" x="221.1772" y="-582.9941" font-family="Arial" font-size="10.00" fill="#696969"> provide </text>
</g>
<!-- confirm&#45;cancel -->
<g id="node8" class="node">
<title>confirm&#45;cancel</title>
<ellipse fill="none" stroke="#696969" cx="228" cy="-101.499" rx="61.7645" ry="18"/>
<text text-anchor="middle" x="228" y="-97.599" font-family="Helvetica,sans-Serif" font-size="13.00" fill="#696969">confirm&#45;cancel</text>
</g>
<!-- account&#45;selection&#45;&gt;confirm&#45;cancel -->
<g id="edge10" class="edge">
<title>account&#45;selection&#45;&gt;confirm&#45;cancel</title>
<path fill="none" stroke="#a0522d" d="M158.0319,-609.3683C144.5693,-593.4761 128,-568.7804 128,-543.4951 128,-543.4951 128,-543.4951 128,-209.499 128,-171.752 161.2959,-141.6074 189.4626,-122.8599"/>
<polygon fill="#a0522d" stroke="#a0522d" points="191.4511,-125.7428 197.9967,-117.4118 187.6845,-119.8426 191.4511,-125.7428"/>
<text text-anchor="middle" x="145.2314" y="-374.2466" font-family="Arial" font-size="10.00" fill="#696969"> cancel </text>
</g>
<!-- transaction&#45;exit -->
<g id="node9" class="node">
<title>transaction&#45;exit</title>
<ellipse fill="none" stroke="#696969" cx="411" cy="-18" rx="64.2269" ry="18"/>
<text text-anchor="middle" x="411" y="-14.1" font-family="Helvetica,sans-Serif" font-size="13.00" fill="#696969">transaction&#45;exit</text>
</g>
<!-- account&#45;selection&#45;&gt;transaction&#45;exit -->
<g id="edge19" class="edge">
<title>account&#45;selection&#45;&gt;transaction&#45;exit</title>
<path fill="none" stroke="#ff8c00" d="M125.787,-613.7889C74.0264,-598.4112 0,-571.5197 0,-543.4951 0,-543.4951 0,-543.4951 0,-101.499 0,-67.1854 222.8495,-38.1313 340.3575,-25.1963"/>
<polygon fill="#ff8c00" stroke="#ff8c00" points="340.7936,-28.6696 350.3555,-24.1066 340.0352,-21.7108 340.7936,-28.6696"/>
<text text-anchor="middle" x="19.1748" y="-332.4971" font-family="Arial" font-size="10.00" fill="#696969"> timeout </text>
</g>
<!-- transaction&#45;validate -->
<g id="node3" class="node">
<title>transaction&#45;validate</title>
<ellipse fill="none" stroke="#696969" cx="310" cy="-459.9961" rx="79.4874" ry="18"/>
<text text-anchor="middle" x="310" y="-456.0961" font-family="Helvetica,sans-Serif" font-size="13.00" fill="#696969">transaction&#45;validate</text>
</g>
<!-- amount&#45;&gt;transaction&#45;validate -->
<g id="edge3" class="edge">
<title>amount&#45;&gt;transaction&#45;validate</title>
<path fill="none" stroke="#0000ff" d="M258.2216,-538.4315C276.9618,-533.7488 298.4634,-524.7541 310,-507.4951 313.7291,-501.9162 315.0875,-495.0847 315.2055,-488.3605"/>
<polygon fill="#0000ff" stroke="#0000ff" points="318.6782,-487.8279 314.5324,-478.0779 311.6932,-488.2852 318.6782,-487.8279"/>
<text text-anchor="middle" x="333.1772" y="-499.4951" font-family="Arial" font-size="10.00" fill="#696969"> provide </text>
</g>
<!-- amount&#45;&gt;confirm&#45;cancel -->
<g id="edge11" class="edge">
<title>amount&#45;&gt;confirm&#45;cancel</title>
<path fill="none" stroke="#a0522d" d="M216.7214,-525.7454C214.9172,-519.9904 213.1331,-513.5328 212,-507.4951 181.6605,-345.8363 193.3794,-299.8117 220,-137.499 220.4171,-134.956 220.9008,-132.3227 221.4198,-129.6904"/>
<polygon fill="#a0522d" stroke="#a0522d" points="224.88,-130.2446 223.5307,-119.7361 218.0323,-128.7924 224.88,-130.2446"/>
<text text-anchor="middle" x="212.2314" y="-332.4971" font-family="Arial" font-size="10.00" fill="#696969"> cancel </text>
</g>
<!-- amount&#45;&gt;transaction&#45;exit -->
<g id="edge20" class="edge">
<title>amount&#45;&gt;transaction&#45;exit</title>
<path fill="none" stroke="#ff8c00" d="M259.7322,-542.6941C351.2292,-539.7076 582,-525.6659 582,-459.9961 582,-459.9961 582,-459.9961 582,-334.7476 582,-246.4876 638.3942,-219.1975 605,-137.499 582.1061,-81.4895 517.3098,-49.7492 468.8586,-33.2723"/>
<polygon fill="#ff8c00" stroke="#ff8c00" points="469.689,-29.8616 459.0964,-30.0813 467.514,-36.5151 469.689,-29.8616"/>
<text text-anchor="middle" x="609.1748" y="-290.7476" font-family="Arial" font-size="10.00" fill="#696969"> timeout </text>
</g>
<!-- transaction&#45;validate&#45;&gt;amount -->
<g id="edge4" class="edge">
<title>transaction&#45;validate&#45;&gt;amount</title>
<path fill="none" stroke="#dc143c" d="M251.0139,-472.0191C238.7589,-477.3254 227.3151,-484.9734 219.8477,-495.9961 216.0757,-501.5639 215.0202,-508.3915 215.3354,-515.1153"/>
<polygon fill="#dc143c" stroke="#dc143c" points="211.9215,-515.9772 216.7655,-525.3999 218.8548,-515.0131 211.9215,-515.9772"/>
<text text-anchor="middle" x="263.0762" y="-499.4951" font-family="Arial" font-size="10.00" fill="#696969"> transaction&#45;invalid </text>
</g>
<!-- transaction&#45;verify -->
<g id="node4" class="node">
<title>transaction&#45;verify</title>
<ellipse fill="none" stroke="#696969" cx="337" cy="-376.4971" rx="70.5598" ry="18"/>
<text text-anchor="middle" x="337" y="-372.5971" font-family="Helvetica,sans-Serif" font-size="13.00" fill="#696969">transaction&#45;verify</text>
</g>
<!-- transaction&#45;validate&#45;&gt;transaction&#45;verify -->
<g id="edge5" class="edge">
<title>transaction&#45;validate&#45;&gt;transaction&#45;verify</title>
<path fill="none" stroke="#0000ff" d="M315.8586,-441.878C319.3967,-430.9362 323.979,-416.7653 327.9725,-404.415"/>
<polygon fill="#0000ff" stroke="#0000ff" points="331.4063,-405.1716 331.1528,-394.5798 324.7458,-403.0178 331.4063,-405.1716"/>
<text text-anchor="middle" x="344.1772" y="-415.9961" font-family="Arial" font-size="10.00" fill="#696969"> provide </text>
</g>
<!-- transaction&#45;validate&#45;&gt;confirm&#45;cancel -->
<g id="edge12" class="edge">
<title>transaction&#45;validate&#45;&gt;confirm&#45;cancel</title>
<path fill="none" stroke="#a0522d" d="M290.9748,-442.4385C279.0601,-430.228 264.5755,-412.8921 257,-394.4971 219.4866,-303.4065 222.0196,-183.4117 225.5637,-129.6571"/>
<polygon fill="#a0522d" stroke="#a0522d" points="229.0662,-129.7481 226.2978,-119.5213 222.0845,-129.2423 229.0662,-129.7481"/>
<text text-anchor="middle" x="251.2314" y="-290.7476" font-family="Arial" font-size="10.00" fill="#696969"> cancel </text>
</g>
<!-- transaction&#45;exec -->
<g id="node5" class="node">
<title>transaction&#45;exec</title>
<ellipse fill="none" stroke="#696969" cx="384" cy="-292.998" rx="68.6281" ry="18"/>
<text text-anchor="middle" x="384" y="-289.098" font-family="Helvetica,sans-Serif" font-size="13.00" fill="#696969">transaction&#45;exec</text>
</g>
<!-- transaction&#45;verify&#45;&gt;transaction&#45;exec -->
<g id="edge6" class="edge">
<title>transaction&#45;verify&#45;&gt;transaction&#45;exec</title>
<path fill="none" stroke="#0000ff" d="M347.1983,-358.379C353.542,-347.1089 361.814,-332.4131 368.9084,-319.8095"/>
<polygon fill="#0000ff" stroke="#0000ff" points="371.9664,-321.5119 373.8216,-311.0807 365.8664,-318.0783 371.9664,-321.5119"/>
<text text-anchor="middle" x="382.1772" y="-332.4971" font-family="Arial" font-size="10.00" fill="#696969"> provide </text>
</g>
<!-- transaction&#45;verify&#45;&gt;confirm&#45;cancel -->
<g id="edge14" class="edge">
<title>transaction&#45;verify&#45;&gt;confirm&#45;cancel</title>
<path fill="none" stroke="#a0522d" d="M327.5022,-358.6017C315.4569,-335.5131 294.4617,-293.921 279.5371,-256.998 270.0628,-233.559 248.8918,-167.6794 236.8396,-129.6114"/>
<polygon fill="#a0522d" stroke="#a0522d" points="240.049,-128.1515 233.6994,-119.6702 233.3741,-130.26 240.049,-128.1515"/>
<text text-anchor="middle" x="297.2314" y="-248.998" font-family="Arial" font-size="10.00" fill="#696969"> cancel </text>
</g>
<!-- transaction&#45;verify&#45;&gt;transaction&#45;exit -->
<g id="edge21" class="edge">
<title>transaction&#45;verify&#45;&gt;transaction&#45;exit</title>
<path fill="none" stroke="#ff8c00" d="M380.882,-362.2213C424.3124,-345.2074 487.1045,-311.9505 507,-256.998 508.7398,-252.1926 509.1078,-250.1548 507,-245.499 486.9973,-201.3166 446.9654,-216.7392 425,-173.499 404.4854,-133.115 404.788,-79.1943 407.4714,-46.6177"/>
<polygon fill="#ff8c00" stroke="#ff8c00" points="410.9769,-46.7267 408.4461,-36.4386 404.0088,-46.0594 410.9769,-46.7267"/>
<text text-anchor="middle" x="513.1748" y="-207.2485" font-family="Arial" font-size="10.00" fill="#696969"> timeout </text>
</g>
<!-- transaction&#45;error -->
<g id="node6" class="node">
<title>transaction&#45;error</title>
<ellipse fill="none" stroke="#696969" cx="360" cy="-209.499" rx="68.6124" ry="18"/>
<text text-anchor="middle" x="360" y="-205.599" font-family="Helvetica,sans-Serif" font-size="13.00" fill="#696969">transaction&#45;error</text>
</g>
<!-- transaction&#45;exec&#45;&gt;transaction&#45;error -->
<g id="edge9" class="edge">
<title>transaction&#45;exec&#45;&gt;transaction&#45;error</title>
<path fill="none" stroke="#dc143c" d="M378.7924,-274.88C375.6474,-263.9381 371.5742,-249.7672 368.0244,-237.4169"/>
<polygon fill="#dc143c" stroke="#dc143c" points="371.3238,-236.2257 365.1975,-227.5817 364.5962,-238.1595 371.3238,-236.2257"/>
<text text-anchor="middle" x="412.458" y="-248.998" font-family="Arial" font-size="10.00" fill="#696969"> transaction&#45;error </text>
</g>
<!-- transaction&#45;completed -->
<g id="node7" class="node">
<title>transaction&#45;completed</title>
<ellipse fill="none" stroke="#696969" cx="515" cy="-155.499" rx="88.6647" ry="18"/>
<text text-anchor="middle" x="515" y="-151.599" font-family="Helvetica,sans-Serif" font-size="13.00" fill="#696969">transaction&#45;completed</text>
</g>
<!-- transaction&#45;exec&#45;&gt;transaction&#45;completed -->
<g id="edge8" class="edge">
<title>transaction&#45;exec&#45;&gt;transaction&#45;completed</title>
<path fill="none" stroke="#0000ff" d="M423.6205,-278.2601C434.9513,-272.7689 446.729,-265.7036 456,-256.998 478.1327,-236.2155 494.4843,-205.2541 504.2891,-182.9956"/>
<polygon fill="#0000ff" stroke="#0000ff" points="507.5291,-184.3199 508.2093,-173.7469 501.0842,-181.588 507.5291,-184.3199"/>
<text text-anchor="middle" x="484.1772" y="-248.998" font-family="Arial" font-size="10.00" fill="#696969"> provide </text>
</g>
<!-- transaction&#45;error&#45;&gt;transaction&#45;exec -->
<g id="edge7" class="edge">
<title>transaction&#45;error&#45;&gt;transaction&#45;exec</title>
<path fill="none" stroke="#0000ff" d="M333.0078,-226.068C322.4252,-234.76 314.1819,-245.891 320.6455,-256.998 324.1938,-263.0955 329.2026,-268.2448 334.8671,-272.5696"/>
<polygon fill="#0000ff" stroke="#0000ff" points="333.2751,-275.7138 343.5417,-278.3305 337.1476,-269.8826 333.2751,-275.7138"/>
<text text-anchor="middle" x="339.1772" y="-248.998" font-family="Arial" font-size="10.00" fill="#696969"> provide </text>
</g>
<!-- transaction&#45;error&#45;&gt;confirm&#45;cancel -->
<g id="edge13" class="edge">
<title>transaction&#45;error&#45;&gt;confirm&#45;cancel</title>
<path fill="none" stroke="#a0522d" d="M325.2691,-193.8473C315.2884,-188.3248 304.8627,-181.4714 296.5371,-173.499 282.9032,-160.4435 286.6311,-151.5271 274,-137.499 270.0007,-133.0574 265.4047,-128.7528 260.6987,-124.7575"/>
<polygon fill="#a0522d" stroke="#a0522d" points="262.7424,-121.9093 252.7611,-118.3562 258.3481,-127.3582 262.7424,-121.9093"/>
<text text-anchor="middle" x="313.2314" y="-153.2485" font-family="Arial" font-size="10.00" fill="#696969"> cancel </text>
</g>
<!-- transaction&#45;error&#45;&gt;transaction&#45;exit -->
<g id="edge22" class="edge">
<title>transaction&#45;error&#45;&gt;transaction&#45;exit</title>
<path fill="none" stroke="#ff8c00" d="M356.0345,-191.3471C351.3903,-166.2851 345.8419,-120.0402 358.6504,-83.499 363.9713,-68.319 374.4522,-54.0403 384.6473,-42.713"/>
<polygon fill="#ff8c00" stroke="#ff8c00" points="387.2652,-45.0385 391.5927,-35.3677 382.179,-40.2291 387.2652,-45.0385"/>
<text text-anchor="middle" x="377.1748" y="-99.2485" font-family="Arial" font-size="10.00" fill="#696969"> timeout </text>
</g>
<!-- transaction&#45;completed&#45;&gt;account&#45;selection -->
<g id="edge15" class="edge">
<title>transaction&#45;completed&#45;&gt;account&#45;selection</title>
<path fill="none" stroke="#0000ff" d="M567.1834,-170.1892C604.4441,-184.2345 648,-209.567 648,-251.2485 648,-543.4951 648,-543.4951 648,-543.4951 648,-582.9621 389.3191,-609.7207 254.5582,-620.983"/>
<polygon fill="#0000ff" stroke="#0000ff" points="253.9627,-617.5202 244.2848,-621.8316 254.539,-624.4964 253.9627,-617.5202"/>
<text text-anchor="middle" x="667.7363" y="-415.9961" font-family="Arial" font-size="10.00" fill="#696969"> another </text>
</g>
<!-- transaction&#45;completed&#45;&gt;transaction&#45;exit -->
<g id="edge17" class="edge">
<title>transaction&#45;completed&#45;&gt;transaction&#45;exit</title>
<path fill="none" stroke="#0000ff" d="M513.6829,-137.4103C511.965,-122.2602 508.0226,-100.4553 499,-83.499 488.9437,-64.6 470.7525,-49.6696 453.5089,-38.8663"/>
<polygon fill="#0000ff" stroke="#0000ff" points="455.012,-35.6884 444.6262,-33.5939 451.439,-41.7079 455.012,-35.6884"/>
<text text-anchor="middle" x="529.1772" y="-99.2485" font-family="Arial" font-size="10.00" fill="#696969"> provide </text>
</g>
<!-- transaction&#45;completed&#45;&gt;transaction&#45;exit -->
<g id="edge23" class="edge">
<title>transaction&#45;completed&#45;&gt;transaction&#45;exit</title>
<path fill="none" stroke="#ff8c00" d="M480.3062,-138.7603C471.7951,-133.4731 463.2457,-127.0139 456.6504,-119.499 451.406,-113.5235 434.0345,-73.2744 422.2979,-45.2939"/>
<polygon fill="#ff8c00" stroke="#ff8c00" points="425.4937,-43.8639 418.4106,-35.9848 419.0342,-46.5613 425.4937,-43.8639"/>
<text text-anchor="middle" x="475.1748" y="-99.2485" font-family="Arial" font-size="10.00" fill="#696969"> timeout </text>
</g>
<!-- confirm&#45;cancel&#45;&gt;account&#45;selection -->
<g id="edge16" class="edge">
<title>confirm&#45;cancel&#45;&gt;account&#45;selection</title>
<path fill="none" stroke="#0000ff" d="M175.0193,-110.9785C123.5123,-123.6043 53,-151.4834 53,-209.499 53,-543.4951 53,-543.4951 53,-543.4951 53,-576.7571 84.2642,-597.7407 115.1392,-610.3534"/>
<polygon fill="#0000ff" stroke="#0000ff" points="114.0832,-613.6968 124.6736,-614.0033 116.5858,-607.1594 114.0832,-613.6968"/>
<text text-anchor="middle" x="72.7363" y="-374.2466" font-family="Arial" font-size="10.00" fill="#696969"> another </text>
</g>
<!-- confirm&#45;cancel&#45;&gt;transaction&#45;exit -->
<g id="edge18" class="edge">
<title>confirm&#45;cancel&#45;&gt;transaction&#45;exit</title>
<path fill="none" stroke="#0000ff" d="M229.3094,-83.3376C230.986,-73.3256 234.7064,-61.4508 242.8818,-54 257.3925,-40.7754 301.3826,-31.6361 340.7238,-25.8755"/>
<polygon fill="#0000ff" stroke="#0000ff" points="341.4548,-29.3072 350.8694,-24.4475 340.4791,-22.3755 341.4548,-29.3072"/>
<text text-anchor="middle" x="253.5591" y="-57.499" font-family="Arial" font-size="10.00" fill="#696969"> exit </text>
</g>
<!-- confirm&#45;cancel&#45;&gt;transaction&#45;exit -->
<g id="edge24" class="edge">
<title>confirm&#45;cancel&#45;&gt;transaction&#45;exit</title>
<path fill="none" stroke="#ff8c00" d="M247.8032,-84.2004C260.0438,-74.2325 276.4625,-62.1105 292.6504,-54 310.8,-44.9066 331.6817,-37.6204 350.8035,-32.0466"/>
<polygon fill="#ff8c00" stroke="#ff8c00" points="351.9391,-35.3631 360.6187,-29.2874 350.0447,-28.6243 351.9391,-35.3631"/>
<text text-anchor="middle" x="311.1748" y="-57.499" font-family="Arial" font-size="10.00" fill="#696969"> timeout </text>
</g>
<!-- transaction&#45;exit&#45;&gt;account&#45;selection -->
<g id="edge25" class="edge">
<title>transaction&#45;exit&#45;&gt;account&#45;selection</title>
<path fill="none" stroke="#0000ff" d="M472.7136,-23.2007C558.134,-32.1319 702,-54.1955 702,-101.499 702,-543.4951 702,-543.4951 702,-543.4951 702,-588.1048 403.6234,-612.8569 255.8965,-622.378"/>
<polygon fill="#0000ff" stroke="#0000ff" points="255.2845,-618.9097 245.5267,-623.0372 255.7287,-625.8956 255.2845,-618.9097"/>
<text text-anchor="middle" x="715.894" y="-332.4971" font-family="Arial" font-size="10.00" fill="#696969"> reset </text>
</g>
<!-- none -->
<g id="node10" class="node">
<title>none</title>
<ellipse fill="none" stroke="#696969" cx="175" cy="-710.4932" rx="27.8051" ry="18"/>
<text text-anchor="middle" x="175" y="-706.5932" font-family="Helvetica,sans-Serif" font-size="13.00" fill="#696969">none</text>
</g>
<!-- none&#45;&gt;account&#45;selection -->
<g id="edge1" class="edge">
<title>none&#45;&gt;account&#45;selection</title>
<path fill="none" stroke="#0000ff" d="M175,-692.3751C175,-681.5427 175,-667.5455 175,-655.2831"/>
<polygon fill="#0000ff" stroke="#0000ff" points="178.5001,-655.0768 175,-645.0768 171.5001,-655.0769 178.5001,-655.0768"/>
<text text-anchor="middle" x="184.1699" y="-666.4932" font-family="Arial" font-size="10.00" fill="#696969"> init </text>
</g>
</g>
</svg>
