<?xml version="1.0" encoding="UTF-8" standalone="no"?>
<!DOCTYPE svg PUBLIC "-//W3C//DTD SVG 1.1//EN"
 "http://www.w3.org/Graphics/SVG/1.1/DTD/svg11.dtd">
<!-- Generated by graphviz version 2.40.1 (20161225.0304)
 -->
<!-- Title: fsm Pages: 1 -->
<svg width="722pt" height="736pt"
 viewBox="0.00 0.00 722.47 736.49" xmlns="http://www.w3.org/2000/svg" xmlns:xlink="http://www.w3.org/1999/xlink">
<g id="graph0" class="graph" transform="scale(1 1) rotate(0) translate(4 732.4932)">
<title>fsm</title>
<polygon fill="#ffffff" stroke="transparent" points="-4,4 -4,-732.4932 718.4727,-732.4932 718.4727,4 -4,4"/>
<!-- account&#45;selection -->
<g id="node1" class="node">
<title>account&#45;selection</title>
<ellipse fill="none" stroke="#696969" cx="466" cy="-626.9941" rx="72.2556" ry="18"/>
<text text-anchor="middle" x="466" y="-623.0941" font-family="Helvetica,sans-Serif" font-size="13.00" fill="#696969">account&#45;selection</text>
</g>
<!-- amount -->
<g id="node2" class="node">
<title>amount</title>
<ellipse fill="none" stroke="#696969" cx="428" cy="-543.4951" rx="36.5836" ry="18"/>
<text text-anchor="middle" x="428" y="-539.5951" font-family="Helvetica,sans-Serif" font-size="13.00" fill="#696969">amount</text>
</g>
<!-- account&#45;selection&#45;&gt;amount -->
<g id="edge2" class="edge">
<title>account&#45;selection&#45;&gt;amount</title>
<path fill="none" stroke="#0000ff" d="M451.5154,-609.0774C447.5546,-603.5281 443.5567,-597.228 440.6455,-590.9941 437.802,-584.9052 435.5113,-578.0676 433.7024,-571.5182"/>
<polygon fill="#0000ff" stroke="#0000ff" points="437.05,-570.4761 431.2461,-561.6124 430.2558,-572.1608 437.05,-570.4761"/>
<text text-anchor="middle" x="460.1772" y="-582.9941" font-family="Arial" font-size="10.00" fill="#696969"> provide </text>
</g>
<!-- confirm&#45;cancel -->
<g id="node8" class="node">
<title>confirm&#45;cancel</title>
<ellipse fill="none" stroke="#696969" cx="450" cy="-101.499" rx="61.7645" ry="18"/>
<text text-anchor="middle" x="450" y="-97.599" font-family="Helvetica,sans-Serif" font-size="13.00" fill="#696969">confirm&#45;cancel</text>
</g>
<!-- account&#45;selection&#45;&gt;confirm&#45;cancel -->
<g id="edge10" class="edge">
<title>account&#45;selection&#45;&gt;confirm&#45;cancel</title>
<path fill="none" stroke="#a0522d" d="M497.5487,-610.619C520.2921,-596.3089 547,-573.184 547,-543.4951 547,-543.4951 547,-543.4951 547,-209.499 547,-172.3172 514.784,-142.1219 487.4843,-123.2094"/>
<polygon fill="#a0522d" stroke="#a0522d" points="489.1076,-120.0861 478.8406,-117.4709 485.2359,-125.9179 489.1076,-120.0861"/>
<text text-anchor="middle" x="564.2314" y="-374.2466" font-family="Arial" font-size="10.00" fill="#696969"> cancel </text>
</g>
<!-- transaction&#45;exit -->
<g id="node9" class="node">
<title>transaction&#45;exit</title>
<ellipse fill="none" stroke="#696969" cx="254" cy="-18" rx="64.2269" ry="18"/>
<text text-anchor="middle" x="254" y="-14.1" font-family="Helvetica,sans-Serif" font-size="13.00" fill="#696969">transaction&#45;exit</text>
</g>
<!-- account&#45;selection&#45;&gt;transaction&#45;exit -->
<g id="edge18" class="edge">
<title>account&#45;selection&#45;&gt;transaction&#45;exit</title>
<path fill="none" stroke="#ff8c00" d="M394.4706,-624.4572C325.663,-620.824 219.0973,-612.053 129,-590.9941 69.5071,-577.0886 0,-604.5915 0,-543.4951 0,-543.4951 0,-543.4951 0,-101.499 0,-62.3501 110.2718,-38.5408 185.5006,-26.8529"/>
<polygon fill="#ff8c00" stroke="#ff8c00" points="186.0456,-30.3104 195.4083,-25.3516 184.9968,-23.3894 186.0456,-30.3104"/>
<text text-anchor="middle" x="19.1748" y="-332.4971" font-family="Arial" font-size="10.00" fill="#696969"> timeout </text>
</g>
<!-- transaction&#45;validate -->
<g id="node3" class="node">
<title>transaction&#45;validate</title>
<ellipse fill="none" stroke="#696969" cx="282" cy="-459.9961" rx="79.4874" ry="18"/>
<text text-anchor="middle" x="282" y="-456.0961" font-family="Helvetica,sans-Serif" font-size="13.00" fill="#696969">transaction&#45;validate</text>
</g>
<!-- amount&#45;&gt;transaction&#45;validate -->
<g id="edge3" class="edge">
<title>amount&#45;&gt;transaction&#45;validate</title>
<path fill="none" stroke="#0000ff" d="M410.9004,-527.5362C399.6128,-517.5742 384.1581,-504.9812 369,-495.9961 358.4539,-489.7448 346.6199,-484.0664 335.1578,-479.1619"/>
<polygon fill="#0000ff" stroke="#0000ff" points="336.2319,-475.8186 325.6535,-475.2285 333.5551,-482.2865 336.2319,-475.8186"/>
<text text-anchor="middle" x="404.1772" y="-499.4951" font-family="Arial" font-size="10.00" fill="#696969"> provide </text>
</g>
<!-- amount&#45;&gt;confirm&#45;cancel -->
<g id="edge11" class="edge">
<title>amount&#45;&gt;confirm&#45;cancel</title>
<path fill="none" stroke="#a0522d" d="M427.3261,-525.3619C426.3859,-487.9887 426.4946,-399.945 444.5371,-328.998 456.7197,-281.0937 479.669,-275.8365 490,-227.499 493.3441,-211.8524 492.161,-207.3524 490,-191.499 486.6358,-166.8185 485.5863,-160.0462 475,-137.499 473.4194,-134.1326 471.5311,-130.7394 469.5102,-127.4524"/>
<polygon fill="#a0522d" stroke="#a0522d" points="472.4116,-125.4947 463.9713,-119.0907 466.5758,-129.3604 472.4116,-125.4947"/>
<text text-anchor="middle" x="462.2314" y="-332.4971" font-family="Arial" font-size="10.00" fill="#696969"> cancel </text>
</g>
<!-- amount&#45;&gt;transaction&#45;exit -->
<g id="edge19" class="edge">
<title>amount&#45;&gt;transaction&#45;exit</title>
<path fill="none" stroke="#ff8c00" d="M460.7777,-535.5094C512.937,-521.8337 609,-492.2664 609,-459.9961 609,-459.9961 609,-459.9961 609,-101.499 609,-44.2849 432.0637,-26.2383 328.0191,-20.5722"/>
<polygon fill="#ff8c00" stroke="#ff8c00" points="328.0447,-17.0689 317.8769,-20.0463 327.6822,-24.0595 328.0447,-17.0689"/>
<text text-anchor="middle" x="628.1748" y="-290.7476" font-family="Arial" font-size="10.00" fill="#696969"> timeout </text>
</g>
<!-- transaction&#45;validate&#45;&gt;amount -->
<g id="edge4" class="edge">
<title>transaction&#45;validate&#45;&gt;amount</title>
<path fill="none" stroke="#dc143c" d="M275.4034,-477.9727C273.0688,-487.6791 272.4058,-499.3135 278.8477,-507.4951 291.5543,-523.6336 343.0799,-533.3925 382.0427,-538.6014"/>
<polygon fill="#dc143c" stroke="#dc143c" points="381.788,-542.0972 392.1504,-539.8902 382.6734,-535.1534 381.788,-542.0972"/>
<text text-anchor="middle" x="322.0762" y="-499.4951" font-family="Arial" font-size="10.00" fill="#696969"> transaction&#45;invalid </text>
</g>
<!-- transaction&#45;verify -->
<g id="node4" class="node">
<title>transaction&#45;verify</title>
<ellipse fill="none" stroke="#696969" cx="263" cy="-376.4971" rx="70.5598" ry="18"/>
<text text-anchor="middle" x="263" y="-372.5971" font-family="Helvetica,sans-Serif" font-size="13.00" fill="#696969">transaction&#45;verify</text>
</g>
<!-- transaction&#45;validate&#45;&gt;transaction&#45;verify -->
<g id="edge5" class="edge">
<title>transaction&#45;validate&#45;&gt;transaction&#45;verify</title>
<path fill="none" stroke="#0000ff" d="M277.8773,-441.878C275.3875,-430.9362 272.1629,-416.7653 269.3527,-404.415"/>
<polygon fill="#0000ff" stroke="#0000ff" points="272.7463,-403.5539 267.1147,-394.5798 265.9207,-405.1071 272.7463,-403.5539"/>
<text text-anchor="middle" x="293.1772" y="-415.9961" font-family="Arial" font-size="10.00" fill="#696969"> provide </text>
</g>
<!-- transaction&#45;exec -->
<g id="node5" class="node">
<title>transaction&#45;exec</title>
<ellipse fill="none" stroke="#696969" cx="263" cy="-292.998" rx="68.6281" ry="18"/>
<text text-anchor="middle" x="263" y="-289.098" font-family="Helvetica,sans-Serif" font-size="13.00" fill="#696969">transaction&#45;exec</text>
</g>
<!-- transaction&#45;verify&#45;&gt;transaction&#45;exec -->
<g id="edge6" class="edge">
<title>transaction&#45;verify&#45;&gt;transaction&#45;exec</title>
<path fill="none" stroke="#0000ff" d="M263,-358.379C263,-347.5466 263,-333.5494 263,-321.287"/>
<polygon fill="#0000ff" stroke="#0000ff" points="266.5001,-321.0807 263,-311.0807 259.5001,-321.0808 266.5001,-321.0807"/>
<text text-anchor="middle" x="282.1772" y="-332.4971" font-family="Arial" font-size="10.00" fill="#696969"> provide </text>
</g>
<!-- transaction&#45;verify&#45;&gt;transaction&#45;exit -->
<g id="edge20" class="edge">
<title>transaction&#45;verify&#45;&gt;transaction&#45;exit</title>
<path fill="none" stroke="#ff8c00" d="M233.832,-359.8897C184.8315,-330.0416 87.8358,-262.0908 52,-173.499 27.0676,-111.862 84.6154,-87.582 142,-54 157.7671,-44.773 176.1889,-37.5989 193.4856,-32.1697"/>
<polygon fill="#ff8c00" stroke="#ff8c00" points="194.9327,-35.3902 203.511,-29.1723 192.9275,-28.6835 194.9327,-35.3902"/>
<text text-anchor="middle" x="101.1748" y="-207.2485" font-family="Arial" font-size="10.00" fill="#696969"> timeout </text>
</g>
<!-- transaction&#45;error -->
<g id="node6" class="node">
<title>transaction&#45;error</title>
<ellipse fill="none" stroke="#696969" cx="412" cy="-209.499" rx="68.6124" ry="18"/>
<text text-anchor="middle" x="412" y="-205.599" font-family="Helvetica,sans-Serif" font-size="13.00" fill="#696969">transaction&#45;error</text>
</g>
<!-- transaction&#45;exec&#45;&gt;transaction&#45;error -->
<g id="edge9" class="edge">
<title>transaction&#45;exec&#45;&gt;transaction&#45;error</title>
<path fill="none" stroke="#dc143c" d="M292.4376,-276.5013C315.7778,-263.4216 348.5701,-245.0449 373.9101,-230.8444"/>
<polygon fill="#dc143c" stroke="#dc143c" points="375.8649,-233.7612 382.8774,-225.8192 372.4428,-227.6547 375.8649,-233.7612"/>
<text text-anchor="middle" x="386.458" y="-248.998" font-family="Arial" font-size="10.00" fill="#696969"> transaction&#45;error </text>
</g>
<!-- transaction&#45;completed -->
<g id="node7" class="node">
<title>transaction&#45;completed</title>
<ellipse fill="none" stroke="#696969" cx="142" cy="-155.499" rx="88.6647" ry="18"/>
<text text-anchor="middle" x="142" y="-151.599" font-family="Helvetica,sans-Serif" font-size="13.00" fill="#696969">transaction&#45;completed</text>
</g>
<!-- transaction&#45;exec&#45;&gt;transaction&#45;completed -->
<g id="edge8" class="edge">
<title>transaction&#45;exec&#45;&gt;transaction&#45;completed</title>
<path fill="none" stroke="#0000ff" d="M223.2107,-278.1052C212.3572,-272.6716 201.2363,-265.6763 192.6455,-256.998 172.1008,-236.2442 158.364,-205.4773 150.4415,-183.2613"/>
<polygon fill="#0000ff" stroke="#0000ff" points="153.7329,-182.0687 147.207,-173.7223 147.1037,-184.3166 153.7329,-182.0687"/>
<text text-anchor="middle" x="212.1772" y="-248.998" font-family="Arial" font-size="10.00" fill="#696969"> provide </text>
</g>
<!-- transaction&#45;exec&#45;&gt;confirm&#45;cancel -->
<g id="edge13" class="edge">
<title>transaction&#45;exec&#45;&gt;confirm&#45;cancel</title>
<path fill="none" stroke="#a0522d" d="M265.7497,-274.6531C269.8312,-252.7744 279.3045,-216.0817 299.5371,-191.499 326.6492,-158.5577 369.1775,-134.7085 402.1133,-119.8703"/>
<polygon fill="#a0522d" stroke="#a0522d" points="403.8016,-122.9521 411.5623,-115.7394 400.9977,-116.5382 403.8016,-122.9521"/>
<text text-anchor="middle" x="317.2314" y="-207.2485" font-family="Arial" font-size="10.00" fill="#696969"> cancel </text>
</g>
<!-- transaction&#45;exec&#45;&gt;transaction&#45;exit -->
<g id="edge21" class="edge">
<title>transaction&#45;exec&#45;&gt;transaction&#45;exit</title>
<path fill="none" stroke="#ff8c00" d="M262.4095,-274.9547C260.8775,-228.1436 256.7666,-102.5351 254.9202,-46.1164"/>
<polygon fill="#ff8c00" stroke="#ff8c00" points="258.418,-45.99 254.5927,-36.1098 251.4218,-46.219 258.418,-45.99"/>
<text text-anchor="middle" x="279.1748" y="-153.2485" font-family="Arial" font-size="10.00" fill="#696969"> timeout </text>
</g>
<!-- transaction&#45;error&#45;&gt;account&#45;selection -->
<g id="edge7" class="edge">
<title>transaction&#45;error&#45;&gt;account&#45;selection</title>
<path fill="none" stroke="#0000ff" d="M443.0851,-225.5834C465.9275,-239.8699 493,-263.1072 493,-292.998 493,-543.4951 493,-543.4951 493,-543.4951 493,-562.925 486.2993,-583.7183 479.5742,-599.6946"/>
<polygon fill="#0000ff" stroke="#0000ff" points="476.3168,-598.4056 475.4433,-608.9644 482.7107,-601.255 476.3168,-598.4056"/>
<text text-anchor="middle" x="512.7363" y="-415.9961" font-family="Arial" font-size="10.00" fill="#696969"> another </text>
</g>
<!-- transaction&#45;error&#45;&gt;confirm&#45;cancel -->
<g id="edge12" class="edge">
<title>transaction&#45;error&#45;&gt;confirm&#45;cancel</title>
<path fill="none" stroke="#a0522d" d="M418.4462,-191.1783C424.4327,-174.1639 433.4289,-148.5957 440.2857,-129.1082"/>
<polygon fill="#a0522d" stroke="#a0522d" points="443.6315,-130.144 443.649,-119.5492 437.0283,-127.8206 443.6315,-130.144"/>
<text text-anchor="middle" x="454.2314" y="-153.2485" font-family="Arial" font-size="10.00" fill="#696969"> cancel </text>
</g>
<!-- transaction&#45;error&#45;&gt;transaction&#45;exit -->
<g id="edge22" class="edge">
<title>transaction&#45;error&#45;&gt;transaction&#45;exit</title>
<path fill="none" stroke="#ff8c00" d="M397.4189,-191.8265C369.3181,-157.7678 307.5698,-82.9276 275.0247,-43.4824"/>
<polygon fill="#ff8c00" stroke="#ff8c00" points="277.6097,-41.1158 268.5458,-35.6298 272.2103,-45.5708 277.6097,-41.1158"/>
<text text-anchor="middle" x="355.1748" y="-99.2485" font-family="Arial" font-size="10.00" fill="#696969"> timeout </text>
</g>
<!-- transaction&#45;completed&#45;&gt;account&#45;selection -->
<g id="edge14" class="edge">
<title>transaction&#45;completed&#45;&gt;account&#45;selection</title>
<path fill="none" stroke="#0000ff" d="M93.8773,-170.7707C83.7734,-175.943 74.055,-182.716 67,-191.499 49.9196,-212.7632 53,-223.974 53,-251.2485 53,-543.4951 53,-543.4951 53,-543.4951 53,-577.3472 268.9267,-605.9 388.5214,-619.1183"/>
<polygon fill="#0000ff" stroke="#0000ff" points="388.4039,-622.6263 398.7252,-620.2348 389.1653,-615.6678 388.4039,-622.6263"/>
<text text-anchor="middle" x="72.7363" y="-415.9961" font-family="Arial" font-size="10.00" fill="#696969"> another </text>
</g>
<!-- transaction&#45;completed&#45;&gt;transaction&#45;exit -->
<g id="edge16" class="edge">
<title>transaction&#45;completed&#45;&gt;transaction&#45;exit</title>
<path fill="none" stroke="#0000ff" d="M156.642,-137.5234C176.0944,-113.6423 210.5897,-71.2935 232.8641,-43.9479"/>
<polygon fill="#0000ff" stroke="#0000ff" points="235.7525,-45.9438 239.3544,-35.98 230.3251,-41.5229 235.7525,-45.9438"/>
<text text-anchor="middle" x="220.1772" y="-99.2485" font-family="Arial" font-size="10.00" fill="#696969"> provide </text>
</g>
<!-- transaction&#45;completed&#45;&gt;transaction&#45;exit -->
<g id="edge23" class="edge">
<title>transaction&#45;completed&#45;&gt;transaction&#45;exit</title>
<path fill="none" stroke="#ff8c00" d="M132.8692,-137.3625C126.5224,-121.9825 120.8045,-99.8751 130.6504,-83.499 145.1631,-59.3609 171.9019,-43.6425 196.7836,-33.6728"/>
<polygon fill="#ff8c00" stroke="#ff8c00" points="198.0741,-36.9269 206.1995,-30.1278 195.6075,-30.3758 198.0741,-36.9269"/>
<text text-anchor="middle" x="150.1748" y="-99.2485" font-family="Arial" font-size="10.00" fill="#696969"> timeout </text>
</g>
<!-- confirm&#45;cancel&#45;&gt;account&#45;selection -->
<g id="edge15" class="edge">
<title>confirm&#45;cancel&#45;&gt;account&#45;selection</title>
<path fill="none" stroke="#0000ff" d="M496.0751,-113.6246C561.9018,-132.3255 675,-170.1775 675,-209.499 675,-543.4951 675,-543.4951 675,-543.4951 675,-574.6322 593.9935,-599.3628 532.8446,-613.5955"/>
<polygon fill="#0000ff" stroke="#0000ff" points="531.8078,-610.2419 522.8341,-615.8742 533.3615,-617.0673 531.8078,-610.2419"/>
<text text-anchor="middle" x="694.7363" y="-374.2466" font-family="Arial" font-size="10.00" fill="#696969"> another </text>
</g>
<!-- confirm&#45;cancel&#45;&gt;transaction&#45;exit -->
<g id="edge17" class="edge">
<title>confirm&#45;cancel&#45;&gt;transaction&#45;exit</title>
<path fill="none" stroke="#0000ff" d="M417.4179,-86.0561C397.0223,-76.5296 370.1259,-64.2204 346,-54 331.8851,-48.0205 316.4124,-41.8283 302.2503,-36.3007"/>
<polygon fill="#0000ff" stroke="#0000ff" points="303.2769,-32.9448 292.688,-32.5908 300.745,-39.4709 303.2769,-32.9448"/>
<text text-anchor="middle" x="382.5591" y="-57.499" font-family="Arial" font-size="10.00" fill="#696969"> exit </text>
</g>
<!-- confirm&#45;cancel&#45;&gt;transaction&#45;exit -->
<g id="edge24" class="edge">
<title>confirm&#45;cancel&#45;&gt;transaction&#45;exit</title>
<path fill="none" stroke="#ff8c00" d="M434.4282,-83.7862C424.6283,-73.6716 411.1827,-61.5406 397,-54 373.8545,-41.694 346.3474,-33.4729 321.6705,-28.0377"/>
<polygon fill="#ff8c00" stroke="#ff8c00" points="322.1548,-24.5635 311.6506,-25.9465 320.7246,-31.4158 322.1548,-24.5635"/>
<text text-anchor="middle" x="433.1748" y="-57.499" font-family="Arial" font-size="10.00" fill="#696969"> timeout </text>
</g>
<!-- none -->
<g id="node10" class="node">
<title>none</title>
<ellipse fill="none" stroke="#696969" cx="466" cy="-710.4932" rx="27.8051" ry="18"/>
<text text-anchor="middle" x="466" y="-706.5932" font-family="Helvetica,sans-Serif" font-size="13.00" fill="#696969">none</text>
</g>
<!-- none&#45;&gt;account&#45;selection -->
<g id="edge1" class="edge">
<title>none&#45;&gt;account&#45;selection</title>
<path fill="none" stroke="#0000ff" d="M466,-692.3751C466,-681.5427 466,-667.5455 466,-655.2831"/>
<polygon fill="#0000ff" stroke="#0000ff" points="469.5001,-655.0768 466,-645.0768 462.5001,-655.0769 469.5001,-655.0768"/>
<text text-anchor="middle" x="475.1699" y="-666.4932" font-family="Arial" font-size="10.00" fill="#696969"> init </text>
</g>
</g>
</svg>
