<?xml version="1.0" encoding="UTF-8" standalone="no"?>
<!DOCTYPE svg PUBLIC "-//W3C//DTD SVG 1.1//EN"
 "http://www.w3.org/Graphics/SVG/1.1/DTD/svg11.dtd">
<!-- Generated by graphviz version 2.40.1 (20161225.0304)
 -->
<!-- Title: fsm Pages: 1 -->
<svg width="431pt" height="476pt"
 viewBox="0.00 0.00 431.33 476.00" xmlns="http://www.w3.org/2000/svg" xmlns:xlink="http://www.w3.org/1999/xlink">
<g id="graph0" class="graph" transform="scale(1 1) rotate(0) translate(4 472)">
<title>fsm</title>
<polygon fill="#ffffff" stroke="transparent" points="-4,4 -4,-472 427.3331,-472 427.3331,4 -4,4"/>
<!-- ready -->
<g id="node1" class="node">
<title>ready</title>
<ellipse fill="none" stroke="#696969" cx="393.4654" cy="-378" rx="29.736" ry="18"/>
<text text-anchor="middle" x="393.4654" y="-374.1" font-family="Helvetica,sans-Serif" font-size="13.00" fill="#696969">ready</text>
</g>
<!-- pin -->
<g id="node2" class="node">
<title>pin</title>
<ellipse fill="none" stroke="#696969" cx="366.4654" cy="-306" rx="27" ry="18"/>
<text text-anchor="middle" x="366.4654" y="-302.1" font-family="Helvetica,sans-Serif" font-size="13.00" fill="#696969">pin</text>
</g>
<!-- ready&#45;&gt;pin -->
<g id="edge2" class="edge">
<title>ready&#45;&gt;pin</title>
<path fill="none" stroke="#0000ff" d="M378.5315,-362.3771C378.5315,-362.3771 378.5315,-332.3421 378.5315,-332.3421"/>
<polygon fill="#0000ff" stroke="#0000ff" points="382.0316,-332.3421 378.5315,-322.3421 375.0316,-332.3422 382.0316,-332.3421"/>
</g>
<!-- action&#45;selection -->
<g id="node3" class="node">
<title>action&#45;selection</title>
<ellipse fill="none" stroke="#696969" cx="169.4654" cy="-162" rx="65.4073" ry="18"/>
<text text-anchor="middle" x="169.4654" y="-158.1" font-family="Helvetica,sans-Serif" font-size="13.00" fill="#696969">action&#45;selection</text>
</g>
<!-- pin&#45;&gt;action&#45;selection -->
<g id="edge3" class="edge">
<title>pin&#45;&gt;action&#45;selection</title>
<path fill="none" stroke="#0000ff" d="M382.5103,-291.3443C382.5103,-253.6004 382.5103,-156 382.5103,-156 382.5103,-156 241.373,-156 241.373,-156"/>
<polygon fill="#0000ff" stroke="#0000ff" points="241.373,-152.5001 231.373,-156 241.3729,-159.5001 241.373,-152.5001"/>
</g>
<!-- pin&#45;error -->
<g id="node4" class="node">
<title>pin&#45;error</title>
<ellipse fill="none" stroke="#696969" cx="331.4654" cy="-234" rx="40.1798" ry="18"/>
<text text-anchor="middle" x="331.4654" y="-230.1" font-family="Helvetica,sans-Serif" font-size="13.00" fill="#696969">pin&#45;error</text>
</g>
<!-- pin&#45;&gt;pin&#45;error -->
<g id="edge4" class="edge">
<title>pin&#45;&gt;pin&#45;error</title>
<path fill="none" stroke="#dc143c" d="M350.162,-291.4297C350.162,-291.4297 350.162,-260.0518 350.162,-260.0518"/>
<polygon fill="#dc143c" stroke="#dc143c" points="353.6621,-260.0518 350.162,-250.0518 346.6621,-260.0518 353.6621,-260.0518"/>
</g>
<!-- return&#45;card -->
<g id="node5" class="node">
<title>return&#45;card</title>
<ellipse fill="none" stroke="#696969" cx="262.4654" cy="-18" rx="48.9745" ry="18"/>
<text text-anchor="middle" x="262.4654" y="-14.1" font-family="Helvetica,sans-Serif" font-size="13.00" fill="#696969">return&#45;card</text>
</g>
<!-- pin&#45;&gt;return&#45;card -->
<g id="edge16" class="edge">
<title>pin&#45;&gt;return&#45;card</title>
<path fill="none" stroke="#ff8c00" d="M387.9878,-295.0617C387.9878,-242.4551 387.9878,-18 387.9878,-18 387.9878,-18 321.7149,-18 321.7149,-18"/>
<polygon fill="#ff8c00" stroke="#ff8c00" points="321.7149,-14.5001 311.7149,-18 321.7149,-21.5001 321.7149,-14.5001"/>
</g>
<!-- action&#45;selection&#45;&gt;return&#45;card -->
<g id="edge12" class="edge">
<title>action&#45;selection&#45;&gt;return&#45;card</title>
<path fill="none" stroke="#a0522d" d="M160.9538,-144.0535C160.9538,-105.4517 160.9538,-18 160.9538,-18 160.9538,-18 203.1964,-18 203.1964,-18"/>
<polygon fill="#a0522d" stroke="#a0522d" points="203.1964,-21.5001 213.1964,-18 203.1964,-14.5001 203.1964,-21.5001"/>
</g>
<!-- action&#45;selection&#45;&gt;return&#45;card -->
<g id="edge13" class="edge">
<title>action&#45;selection&#45;&gt;return&#45;card</title>
<path fill="none" stroke="#ff8c00" d="M166.9769,-143.7933C166.9769,-106.9441 166.9769,-27 166.9769,-27 166.9769,-27 210.0266,-27 210.0266,-27"/>
<polygon fill="#ff8c00" stroke="#ff8c00" points="210.0267,-30.5001 220.0266,-27 210.0266,-23.5001 210.0267,-30.5001"/>
</g>
<!-- deposit&#45;transaction -->
<g id="node6" class="node">
<title>deposit&#45;transaction</title>
<ellipse fill="#ffff00" stroke="#696969" cx="77.4654" cy="-90" rx="77.4308" ry="18"/>
<text text-anchor="middle" x="77.4654" y="-86.1" font-family="Helvetica,sans-Serif" font-size="13.00" fill="#696969">deposit&#45;transaction</text>
</g>
<!-- action&#45;selection&#45;&gt;deposit&#45;transaction -->
<g id="edge8" class="edge">
<title>action&#45;selection&#45;&gt;deposit&#45;transaction</title>
<path fill="none" stroke="#0000ff" d="M137.9578,-146.0209C137.9578,-146.0209 137.9578,-111.6831 137.9578,-111.6831"/>
<polygon fill="#0000ff" stroke="#0000ff" points="141.4579,-111.6831 137.9578,-101.6831 134.4579,-111.6832 141.4579,-111.6831"/>
</g>
<!-- withdrawal&#45;transaction -->
<g id="node7" class="node">
<title>withdrawal&#45;transaction</title>
<ellipse fill="#ffff00" stroke="#696969" cx="262.4654" cy="-90" rx="89.4308" ry="18"/>
<text text-anchor="middle" x="262.4654" y="-86.1" font-family="Helvetica,sans-Serif" font-size="13.00" fill="#696969">withdrawal&#45;transaction</text>
</g>
<!-- action&#45;selection&#45;&gt;withdrawal&#45;transaction -->
<g id="edge10" class="edge">
<title>action&#45;selection&#45;&gt;withdrawal&#45;transaction</title>
<path fill="none" stroke="#0000ff" d="M193.6396,-144.937C193.6396,-144.937 193.6396,-111.7685 193.6396,-111.7685"/>
<polygon fill="#0000ff" stroke="#0000ff" points="197.1397,-111.7684 193.6396,-101.7685 190.1397,-111.7685 197.1397,-111.7684"/>
</g>
<!-- pin&#45;error&#45;&gt;action&#45;selection -->
<g id="edge5" class="edge">
<title>pin&#45;error&#45;&gt;action&#45;selection</title>
<path fill="none" stroke="#0000ff" d="M321.6532,-216.3132C321.6532,-196.7632 321.6532,-168 321.6532,-168 321.6532,-168 241.366,-168 241.366,-168"/>
<polygon fill="#0000ff" stroke="#0000ff" points="241.366,-164.5001 231.366,-168 241.3659,-171.5001 241.366,-164.5001"/>
</g>
<!-- pin&#45;error&#45;&gt;pin&#45;error -->
<g id="edge6" class="edge">
<title>pin&#45;error&#45;&gt;pin&#45;error</title>
<path fill="none" stroke="#dc143c" d="M360.8586,-246.5911C360.8586,-256.9724 360.8586,-270 360.8586,-270 360.8586,-270 377.0327,-270 377.0327,-270 377.0327,-270 377.0327,-198 377.0327,-198 377.0327,-198 365.0137,-198 365.0137,-198 365.0137,-198 365.0137,-213.7801 365.0137,-213.7801"/>
<polygon fill="#dc143c" stroke="#dc143c" points="361.5138,-213.7801 365.0137,-223.7801 368.5138,-213.7802 361.5138,-213.7801"/>
</g>
<!-- pin&#45;error&#45;&gt;return&#45;card -->
<g id="edge17" class="edge">
<title>pin&#45;error&#45;&gt;return&#45;card</title>
<path fill="none" stroke="#ff8c00" d="M358.4722,-220.4182C358.4722,-174.3662 358.4722,-27 358.4722,-27 358.4722,-27 315.1345,-27 315.1345,-27"/>
<polygon fill="#ff8c00" stroke="#ff8c00" points="315.1345,-23.5001 305.1345,-27 315.1345,-30.5001 315.1345,-23.5001"/>
</g>
<!-- return&#45;card&#45;&gt;ready -->
<g id="edge7" class="edge">
<title>return&#45;card&#45;&gt;ready</title>
<path fill="none" stroke="#0000ff" d="M305.0678,-9C348.1422,-9 408.3992,-9 408.3992,-9 408.3992,-9 408.3992,-352.1445 408.3992,-352.1445"/>
<polygon fill="#0000ff" stroke="#0000ff" points="404.8991,-352.1446 408.3992,-362.1445 411.8991,-352.1445 404.8991,-352.1446"/>
</g>
<!-- deposit&#45;transaction&#45;&gt;action&#45;selection -->
<g id="edge9" class="edge">
<title>deposit&#45;transaction&#45;&gt;action&#45;selection</title>
<path fill="none" stroke="#0000ff" d="M120.9848,-104.9184C120.9848,-104.9184 120.9848,-139.4997 120.9848,-139.4997"/>
<polygon fill="#0000ff" stroke="#0000ff" points="117.4849,-139.4996 120.9848,-149.4997 124.4849,-139.4997 117.4849,-139.4996"/>
</g>
<!-- deposit&#45;transaction&#45;&gt;return&#45;card -->
<g id="edge14" class="edge">
<title>deposit&#45;transaction&#45;&gt;return&#45;card</title>
<path fill="none" stroke="#ff8c00" d="M77.4654,-71.6198C77.4654,-47.7215 77.4654,-9 77.4654,-9 77.4654,-9 210.0226,-9 210.0226,-9"/>
<polygon fill="#ff8c00" stroke="#ff8c00" points="210.0227,-12.5001 220.0226,-9 210.0226,-5.5001 210.0227,-12.5001"/>
</g>
<!-- withdrawal&#45;transaction&#45;&gt;action&#45;selection -->
<g id="edge11" class="edge">
<title>withdrawal&#45;transaction&#45;&gt;action&#45;selection</title>
<path fill="none" stroke="#0000ff" d="M214.2793,-105.2693C214.2793,-105.2693 214.2793,-138.6892 214.2793,-138.6892"/>
<polygon fill="#0000ff" stroke="#0000ff" points="210.7794,-138.6891 214.2793,-148.6892 217.7794,-138.6892 210.7794,-138.6891"/>
</g>
<!-- withdrawal&#45;transaction&#45;&gt;return&#45;card -->
<g id="edge15" class="edge">
<title>withdrawal&#45;transaction&#45;&gt;return&#45;card</title>
<path fill="none" stroke="#ff8c00" d="M262.4654,-71.8314C262.4654,-71.8314 262.4654,-46.4133 262.4654,-46.4133"/>
<polygon fill="#ff8c00" stroke="#ff8c00" points="265.9655,-46.4132 262.4654,-36.4133 258.9655,-46.4133 265.9655,-46.4132"/>
</g>
<!-- none -->
<g id="node8" class="node">
<title>none</title>
<ellipse fill="none" stroke="#696969" cx="393.4654" cy="-450" rx="27.8051" ry="18"/>
<text text-anchor="middle" x="393.4654" y="-446.1" font-family="Helvetica,sans-Serif" font-size="13.00" fill="#696969">none</text>
</g>
<!-- none&#45;&gt;ready -->
<g id="edge1" class="edge">
<title>none&#45;&gt;ready</title>
<path fill="none" stroke="#0000ff" d="M393.4654,-431.8314C393.4654,-431.8314 393.4654,-406.4133 393.4654,-406.4133"/>
<polygon fill="#0000ff" stroke="#0000ff" points="396.9655,-406.4132 393.4654,-396.4133 389.9655,-406.4133 396.9655,-406.4132"/>
</g>
</g>
</svg>
