<?xml version="1.0" encoding="UTF-8" standalone="no"?>
<!DOCTYPE svg PUBLIC "-//W3C//DTD SVG 1.1//EN"
 "http://www.w3.org/Graphics/SVG/1.1/DTD/svg11.dtd">
<!-- Generated by graphviz version 2.40.1 (20161225.0304)
 -->
<!-- Title: fsm Pages: 1 -->
<svg width="493pt" height="548pt"
 viewBox="0.00 0.00 493.33 548.00" xmlns="http://www.w3.org/2000/svg" xmlns:xlink="http://www.w3.org/1999/xlink">
<g id="graph0" class="graph" transform="scale(1 1) rotate(0) translate(4 544)">
<title>fsm</title>
<polygon fill="#ffffff" stroke="transparent" points="-4,4 -4,-544 489.3331,-544 489.3331,4 -4,4"/>
<!-- ready -->
<g id="node1" class="node">
<title>ready</title>
<ellipse fill="none" stroke="#696969" cx="455.4654" cy="-450" rx="29.736" ry="18"/>
<text text-anchor="middle" x="455.4654" y="-446.1" font-family="Helvetica,sans-Serif" font-size="13.00" fill="#696969">ready</text>
</g>
<!-- pin -->
<g id="node2" class="node">
<title>pin</title>
<ellipse fill="none" stroke="#696969" cx="366.4654" cy="-378" rx="27" ry="18"/>
<text text-anchor="middle" x="366.4654" y="-374.1" font-family="Helvetica,sans-Serif" font-size="13.00" fill="#696969">pin</text>
</g>
<!-- ready&#45;&gt;pin -->
<g id="edge2" class="edge">
<title>ready&#45;&gt;pin</title>
<path fill="none" stroke="#0000ff" d="M427.8393,-443.0963C427.8393,-425.0753 427.8393,-378 427.8393,-378 427.8393,-378 403.5635,-378 403.5635,-378"/>
<polygon fill="#0000ff" stroke="#0000ff" points="403.5636,-374.5001 393.5635,-378 403.5635,-381.5001 403.5636,-374.5001"/>
</g>
<!-- action&#45;selection -->
<g id="node3" class="node">
<title>action&#45;selection</title>
<ellipse fill="none" stroke="#696969" cx="169.4654" cy="-234" rx="65.4073" ry="18"/>
<text text-anchor="middle" x="169.4654" y="-230.1" font-family="Helvetica,sans-Serif" font-size="13.00" fill="#696969">action&#45;selection</text>
</g>
<!-- pin&#45;&gt;action&#45;selection -->
<g id="edge3" class="edge">
<title>pin&#45;&gt;action&#45;selection</title>
<path fill="none" stroke="#0000ff" d="M382.5103,-363.3443C382.5103,-325.6004 382.5103,-228 382.5103,-228 382.5103,-228 241.373,-228 241.373,-228"/>
<polygon fill="#0000ff" stroke="#0000ff" points="241.373,-224.5001 231.373,-228 241.3729,-231.5001 241.373,-224.5001"/>
</g>
<!-- pin&#45;error -->
<g id="node4" class="node">
<title>pin&#45;error</title>
<ellipse fill="none" stroke="#696969" cx="331.4654" cy="-306" rx="40.1798" ry="18"/>
<text text-anchor="middle" x="331.4654" y="-302.1" font-family="Helvetica,sans-Serif" font-size="13.00" fill="#696969">pin&#45;error</text>
</g>
<!-- pin&#45;&gt;pin&#45;error -->
<g id="edge4" class="edge">
<title>pin&#45;&gt;pin&#45;error</title>
<path fill="none" stroke="#dc143c" d="M350.162,-363.4297C350.162,-363.4297 350.162,-332.0518 350.162,-332.0518"/>
<polygon fill="#dc143c" stroke="#dc143c" points="353.6621,-332.0518 350.162,-322.0518 346.6621,-332.0518 353.6621,-332.0518"/>
</g>
<!-- return&#45;card -->
<g id="node5" class="node">
<title>return&#45;card</title>
<ellipse fill="none" stroke="#696969" cx="321.4654" cy="-90" rx="48.9745" ry="18"/>
<text text-anchor="middle" x="321.4654" y="-86.1" font-family="Helvetica,sans-Serif" font-size="13.00" fill="#696969">return&#45;card</text>
</g>
<!-- pin&#45;&gt;return&#45;card -->
<g id="edge18" class="edge">
<title>pin&#45;&gt;return&#45;card</title>
<path fill="none" stroke="#ff8c00" d="M387.9878,-366.9453C387.9878,-314.8075 387.9878,-96 387.9878,-96 387.9878,-96 377.6674,-96 377.6674,-96"/>
<polygon fill="#ff8c00" stroke="#ff8c00" points="377.6675,-92.5001 367.6674,-96 377.6674,-99.5001 377.6675,-92.5001"/>
</g>
<!-- action&#45;selection&#45;&gt;return&#45;card -->
<g id="edge12" class="edge">
<title>action&#45;selection&#45;&gt;return&#45;card</title>
<path fill="none" stroke="#a0522d" d="M160.9538,-216.0535C160.9538,-177.4517 160.9538,-90 160.9538,-90 160.9538,-90 262.4344,-90 262.4344,-90"/>
<polygon fill="#a0522d" stroke="#a0522d" points="262.4345,-93.5001 272.4344,-90 262.4344,-86.5001 262.4345,-93.5001"/>
</g>
<!-- action&#45;selection&#45;&gt;return&#45;card -->
<g id="edge15" class="edge">
<title>action&#45;selection&#45;&gt;return&#45;card</title>
<path fill="none" stroke="#ff8c00" d="M166.9769,-215.7933C166.9769,-178.9441 166.9769,-99 166.9769,-99 166.9769,-99 268.8418,-99 268.8418,-99"/>
<polygon fill="#ff8c00" stroke="#ff8c00" points="268.8418,-102.5001 278.8418,-99 268.8417,-95.5001 268.8418,-102.5001"/>
</g>
<!-- deposit&#45;transaction -->
<g id="node6" class="node">
<title>deposit&#45;transaction</title>
<ellipse fill="#ffff00" stroke="#696969" cx="77.4654" cy="-162" rx="77.4308" ry="18"/>
<text text-anchor="middle" x="77.4654" y="-158.1" font-family="Helvetica,sans-Serif" font-size="13.00" fill="#696969">deposit&#45;transaction</text>
</g>
<!-- action&#45;selection&#45;&gt;deposit&#45;transaction -->
<g id="edge8" class="edge">
<title>action&#45;selection&#45;&gt;deposit&#45;transaction</title>
<path fill="none" stroke="#0000ff" d="M120.9848,-221.7862C120.9848,-221.7862 120.9848,-187.0251 120.9848,-187.0251"/>
<polygon fill="#0000ff" stroke="#0000ff" points="124.4849,-187.025 120.9848,-177.0251 117.4849,-187.0251 124.4849,-187.025"/>
</g>
<!-- withdrawal&#45;transaction -->
<g id="node7" class="node">
<title>withdrawal&#45;transaction</title>
<ellipse fill="#ffff00" stroke="#696969" cx="262.4654" cy="-162" rx="89.4308" ry="18"/>
<text text-anchor="middle" x="262.4654" y="-158.1" font-family="Helvetica,sans-Serif" font-size="13.00" fill="#696969">withdrawal&#45;transaction</text>
</g>
<!-- action&#45;selection&#45;&gt;withdrawal&#45;transaction -->
<g id="edge10" class="edge">
<title>action&#45;selection&#45;&gt;withdrawal&#45;transaction</title>
<path fill="none" stroke="#0000ff" d="M193.6396,-216.937C193.6396,-216.937 193.6396,-183.7685 193.6396,-183.7685"/>
<polygon fill="#0000ff" stroke="#0000ff" points="197.1397,-183.7684 193.6396,-173.7685 190.1397,-183.7685 197.1397,-183.7684"/>
</g>
<!-- pin&#45;error&#45;&gt;action&#45;selection -->
<g id="edge5" class="edge">
<title>pin&#45;error&#45;&gt;action&#45;selection</title>
<path fill="none" stroke="#0000ff" d="M321.6532,-288.3132C321.6532,-268.7632 321.6532,-240 321.6532,-240 321.6532,-240 241.366,-240 241.366,-240"/>
<polygon fill="#0000ff" stroke="#0000ff" points="241.366,-236.5001 231.366,-240 241.3659,-243.5001 241.366,-236.5001"/>
</g>
<!-- pin&#45;error&#45;&gt;pin&#45;error -->
<g id="edge6" class="edge">
<title>pin&#45;error&#45;&gt;pin&#45;error</title>
<path fill="none" stroke="#dc143c" d="M360.8586,-318.5911C360.8586,-328.9724 360.8586,-342 360.8586,-342 360.8586,-342 377.0327,-342 377.0327,-342 377.0327,-342 377.0327,-270 377.0327,-270 377.0327,-270 364.2787,-270 364.2787,-270 364.2787,-270 364.2787,-285.3935 364.2787,-285.3935"/>
<polygon fill="#dc143c" stroke="#dc143c" points="360.7788,-285.3935 364.2787,-295.3935 367.7788,-285.3936 360.7788,-285.3935"/>
</g>
<!-- pin&#45;error&#45;&gt;return&#45;card -->
<g id="edge19" class="edge">
<title>pin&#45;error&#45;&gt;return&#45;card</title>
<path fill="none" stroke="#ff8c00" d="M358.1047,-292.4882C358.1047,-292.4882 358.1047,-112.1526 358.1047,-112.1526"/>
<polygon fill="#ff8c00" stroke="#ff8c00" points="361.6048,-112.1526 358.1047,-102.1526 354.6048,-112.1527 361.6048,-112.1526"/>
</g>
<!-- return&#45;card&#45;&gt;ready -->
<g id="edge7" class="edge">
<title>return&#45;card&#45;&gt;ready</title>
<path fill="none" stroke="#0000ff" d="M367.8432,-84C397.3646,-84 430.081,-84 430.081,-84 430.081,-84 430.081,-430.2104 430.081,-430.2104"/>
<polygon fill="#0000ff" stroke="#0000ff" points="426.5811,-430.2103 430.081,-440.2104 433.5811,-430.2104 426.5811,-430.2103"/>
</g>
<!-- swallow&#45;card -->
<g id="node8" class="node">
<title>swallow&#45;card</title>
<ellipse fill="none" stroke="#696969" cx="378.4654" cy="-18" rx="56.1981" ry="18"/>
<text text-anchor="middle" x="378.4654" y="-14.1" font-family="Helvetica,sans-Serif" font-size="13.00" fill="#696969">swallow&#45;card</text>
</g>
<!-- return&#45;card&#45;&gt;swallow&#45;card -->
<g id="edge13" class="edge">
<title>return&#45;card&#45;&gt;swallow&#45;card</title>
<path fill="none" stroke="#ff8c00" d="M346.4095,-74.3771C346.4095,-74.3771 346.4095,-43.099 346.4095,-43.099"/>
<polygon fill="#ff8c00" stroke="#ff8c00" points="349.9096,-43.099 346.4095,-33.099 342.9096,-43.0991 349.9096,-43.099"/>
</g>
<!-- deposit&#45;transaction&#45;&gt;action&#45;selection -->
<g id="edge9" class="edge">
<title>deposit&#45;transaction&#45;&gt;action&#45;selection</title>
<path fill="none" stroke="#0000ff" d="M137.9578,-173.25C137.9578,-173.25 137.9578,-208.0209 137.9578,-208.0209"/>
<polygon fill="#0000ff" stroke="#0000ff" points="134.4579,-208.0208 137.9578,-218.0209 141.4579,-208.0209 134.4579,-208.0208"/>
</g>
<!-- deposit&#45;transaction&#45;&gt;return&#45;card -->
<g id="edge16" class="edge">
<title>deposit&#45;transaction&#45;&gt;return&#45;card</title>
<path fill="none" stroke="#ff8c00" d="M77.4654,-143.6198C77.4654,-119.7215 77.4654,-81 77.4654,-81 77.4654,-81 268.9638,-81 268.9638,-81"/>
<polygon fill="#ff8c00" stroke="#ff8c00" points="268.9639,-84.5001 278.9638,-81 268.9638,-77.5001 268.9639,-84.5001"/>
</g>
<!-- withdrawal&#45;transaction&#45;&gt;action&#45;selection -->
<g id="edge11" class="edge">
<title>withdrawal&#45;transaction&#45;&gt;action&#45;selection</title>
<path fill="none" stroke="#0000ff" d="M214.2793,-177.2693C214.2793,-177.2693 214.2793,-210.6892 214.2793,-210.6892"/>
<polygon fill="#0000ff" stroke="#0000ff" points="210.7794,-210.6891 214.2793,-220.6892 217.7794,-210.6892 210.7794,-210.6891"/>
</g>
<!-- withdrawal&#45;transaction&#45;&gt;return&#45;card -->
<g id="edge17" class="edge">
<title>withdrawal&#45;transaction&#45;&gt;return&#45;card</title>
<path fill="none" stroke="#ff8c00" d="M312.2044,-146.7307C312.2044,-146.7307 312.2044,-117.7862 312.2044,-117.7862"/>
<polygon fill="#ff8c00" stroke="#ff8c00" points="315.7045,-117.7862 312.2044,-107.7862 308.7045,-117.7862 315.7045,-117.7862"/>
</g>
<!-- swallow&#45;card&#45;&gt;ready -->
<g id="edge14" class="edge">
<title>swallow&#45;card&#45;&gt;ready</title>
<path fill="none" stroke="#0000ff" d="M432.3227,-23.1525C432.3227,-23.1525 432.3227,-428.2122 432.3227,-428.2122"/>
<polygon fill="#0000ff" stroke="#0000ff" points="428.8228,-428.2122 432.3227,-438.2122 435.8228,-428.2122 428.8228,-428.2122"/>
</g>
<!-- none -->
<g id="node9" class="node">
<title>none</title>
<ellipse fill="none" stroke="#696969" cx="455.4654" cy="-522" rx="27.8051" ry="18"/>
<text text-anchor="middle" x="455.4654" y="-518.1" font-family="Helvetica,sans-Serif" font-size="13.00" fill="#696969">none</text>
</g>
<!-- none&#45;&gt;ready -->
<g id="edge1" class="edge">
<title>none&#45;&gt;ready</title>
<path fill="none" stroke="#0000ff" d="M455.4654,-503.8314C455.4654,-503.8314 455.4654,-478.4133 455.4654,-478.4133"/>
<polygon fill="#0000ff" stroke="#0000ff" points="458.9655,-478.4132 455.4654,-468.4133 451.9655,-478.4133 458.9655,-478.4132"/>
</g>
</g>
</svg>
