<?xml version="1.0" encoding="UTF-8" standalone="no"?>
<!DOCTYPE svg PUBLIC "-//W3C//DTD SVG 1.1//EN"
 "http://www.w3.org/Graphics/SVG/1.1/DTD/svg11.dtd">
<!-- Generated by graphviz version 2.40.1 (20161225.0304)
 -->
<!-- Title: fsm Pages: 1 -->
<svg width="438pt" height="620pt"
 viewBox="0.00 0.00 437.83 620.00" xmlns="http://www.w3.org/2000/svg" xmlns:xlink="http://www.w3.org/1999/xlink">
<g id="graph0" class="graph" transform="scale(1 1) rotate(0) translate(4 616)">
<title>fsm</title>
<polygon fill="#ffffff" stroke="transparent" points="-4,4 -4,-616 433.8256,-616 433.8256,4 -4,4"/>
<!-- account&#45;selection -->
<g id="node1" class="node">
<title>account&#45;selection</title>
<ellipse fill="none" stroke="#696969" cx="222.2433" cy="-522" rx="72.2556" ry="18"/>
<text text-anchor="middle" x="222.2433" y="-518.1" font-family="Helvetica,sans-Serif" font-size="13.00" fill="#696969">account&#45;selection</text>
</g>
<!-- amount -->
<g id="node2" class="node">
<title>amount</title>
<ellipse fill="none" stroke="#696969" cx="106.2433" cy="-450" rx="36.5836" ry="18"/>
<text text-anchor="middle" x="106.2433" y="-446.1" font-family="Helvetica,sans-Serif" font-size="13.00" fill="#696969">amount</text>
</g>
<!-- account&#45;selection&#45;&gt;amount -->
<g id="edge2" class="edge">
<title>account&#45;selection&#45;&gt;amount</title>
<path fill="none" stroke="#0000ff" d="M167.8011,-510.1107C167.8011,-489.6606 167.8011,-450 167.8011,-450 167.8011,-450 153.1179,-450 153.1179,-450"/>
<polygon fill="#0000ff" stroke="#0000ff" points="153.1179,-446.5001 143.1179,-450 153.1179,-453.5001 153.1179,-446.5001"/>
</g>
<!-- confirm&#45;cancel -->
<g id="node8" class="node">
<title>confirm&#45;cancel</title>
<ellipse fill="none" stroke="#696969" cx="123.2433" cy="-90" rx="61.7645" ry="18"/>
<text text-anchor="middle" x="123.2433" y="-86.1" font-family="Helvetica,sans-Serif" font-size="13.00" fill="#696969">confirm&#45;cancel</text>
</g>
<!-- account&#45;selection&#45;&gt;confirm&#45;cancel -->
<g id="edge10" class="edge">
<title>account&#45;selection&#45;&gt;confirm&#45;cancel</title>
<path fill="none" stroke="#a0522d" d="M250.8172,-505.1816C250.8172,-437.934 250.8172,-192 250.8172,-192 250.8172,-192 150.1056,-192 150.1056,-192 150.1056,-192 150.1056,-116.3881 150.1056,-116.3881"/>
<polygon fill="#a0522d" stroke="#a0522d" points="153.6057,-116.388 150.1056,-106.3881 146.6057,-116.3881 153.6057,-116.388"/>
</g>
<!-- transaction&#45;exit -->
<g id="node9" class="node">
<title>transaction&#45;exit</title>
<ellipse fill="none" stroke="#696969" cx="123.2433" cy="-18" rx="64.2269" ry="18"/>
<text text-anchor="middle" x="123.2433" y="-14.1" font-family="Helvetica,sans-Serif" font-size="13.00" fill="#696969">transaction&#45;exit</text>
</g>
<!-- account&#45;selection&#45;&gt;transaction&#45;exit -->
<g id="edge18" class="edge">
<title>account&#45;selection&#45;&gt;transaction&#45;exit</title>
<path fill="none" stroke="#ff8c00" d="M150.0873,-522C85.1937,-522 0,-522 0,-522 0,-522 0,-14 0,-14 0,-14 50.5385,-14 50.5385,-14"/>
<polygon fill="#ff8c00" stroke="#ff8c00" points="50.5385,-17.5001 60.5385,-14 50.5385,-10.5001 50.5385,-17.5001"/>
</g>
<!-- transaction&#45;validate -->
<g id="node3" class="node">
<title>transaction&#45;validate</title>
<ellipse fill="none" stroke="#696969" cx="106.2433" cy="-378" rx="79.4874" ry="18"/>
<text text-anchor="middle" x="106.2433" y="-374.1" font-family="Helvetica,sans-Serif" font-size="13.00" fill="#696969">transaction&#45;validate</text>
</g>
<!-- amount&#45;&gt;transaction&#45;validate -->
<g id="edge3" class="edge">
<title>amount&#45;&gt;transaction&#45;validate</title>
<path fill="none" stroke="#0000ff" d="M94.0627,-432.937C94.0627,-432.937 94.0627,-405.9453 94.0627,-405.9453"/>
<polygon fill="#0000ff" stroke="#0000ff" points="97.5628,-405.9452 94.0627,-395.9453 90.5628,-405.9453 97.5628,-405.9452"/>
</g>
<!-- amount&#45;&gt;confirm&#45;cancel -->
<g id="edge11" class="edge">
<title>amount&#45;&gt;confirm&#45;cancel</title>
<path fill="none" stroke="#a0522d" d="M71.6205,-444C46.8986,-444 18,-444 18,-444 18,-444 18,-90 18,-90 18,-90 51.1101,-90 51.1101,-90"/>
<polygon fill="#a0522d" stroke="#a0522d" points="51.1102,-93.5001 61.1101,-90 51.1101,-86.5001 51.1102,-93.5001"/>
</g>
<!-- amount&#45;&gt;transaction&#45;exit -->
<g id="edge19" class="edge">
<title>amount&#45;&gt;transaction&#45;exit</title>
<path fill="none" stroke="#ff8c00" d="M71.6851,-456C43.7346,-456 9,-456 9,-456 9,-456 9,-21 9,-21 9,-21 49.7741,-21 49.7741,-21"/>
<polygon fill="#ff8c00" stroke="#ff8c00" points="49.7741,-24.5001 59.7741,-21 49.774,-17.5001 49.7741,-24.5001"/>
</g>
<!-- transaction&#45;validate&#45;&gt;amount -->
<g id="edge4" class="edge">
<title>transaction&#45;validate&#45;&gt;amount</title>
<path fill="none" stroke="#dc143c" d="M118.4239,-395.7978C118.4239,-395.7978 118.4239,-422.9028 118.4239,-422.9028"/>
<polygon fill="#dc143c" stroke="#dc143c" points="114.924,-422.9027 118.4239,-432.9028 121.924,-422.9028 114.924,-422.9027"/>
</g>
<!-- transaction&#45;verify -->
<g id="node4" class="node">
<title>transaction&#45;verify</title>
<ellipse fill="none" stroke="#696969" cx="106.2433" cy="-306" rx="70.5598" ry="18"/>
<text text-anchor="middle" x="106.2433" y="-302.1" font-family="Helvetica,sans-Serif" font-size="13.00" fill="#696969">transaction&#45;verify</text>
</g>
<!-- transaction&#45;validate&#45;&gt;transaction&#45;verify -->
<g id="edge5" class="edge">
<title>transaction&#45;validate&#45;&gt;transaction&#45;verify</title>
<path fill="none" stroke="#0000ff" d="M106.2433,-359.8314C106.2433,-359.8314 106.2433,-334.4133 106.2433,-334.4133"/>
<polygon fill="#0000ff" stroke="#0000ff" points="109.7434,-334.4132 106.2433,-324.4133 102.7434,-334.4133 109.7434,-334.4132"/>
</g>
<!-- transaction&#45;exec -->
<g id="node5" class="node">
<title>transaction&#45;exec</title>
<ellipse fill="none" stroke="#696969" cx="116.2433" cy="-234" rx="68.6281" ry="18"/>
<text text-anchor="middle" x="116.2433" y="-230.1" font-family="Helvetica,sans-Serif" font-size="13.00" fill="#696969">transaction&#45;exec</text>
</g>
<!-- transaction&#45;verify&#45;&gt;transaction&#45;exec -->
<g id="edge6" class="edge">
<title>transaction&#45;verify&#45;&gt;transaction&#45;exec</title>
<path fill="none" stroke="#0000ff" d="M112.3511,-287.8314C112.3511,-287.8314 112.3511,-262.4133 112.3511,-262.4133"/>
<polygon fill="#0000ff" stroke="#0000ff" points="115.8512,-262.4132 112.3511,-252.4133 108.8512,-262.4133 115.8512,-262.4132"/>
</g>
<!-- transaction&#45;verify&#45;&gt;transaction&#45;exit -->
<g id="edge20" class="edge">
<title>transaction&#45;verify&#45;&gt;transaction&#45;exit</title>
<path fill="none" stroke="#ff8c00" d="M41.5715,-298.5642C41.5715,-254.3543 41.5715,-28 41.5715,-28 41.5715,-28 59.6783,-28 59.6783,-28"/>
<polygon fill="#ff8c00" stroke="#ff8c00" points="59.6783,-31.5001 69.6783,-28 59.6783,-24.5001 59.6783,-31.5001"/>
</g>
<!-- transaction&#45;error -->
<g id="node6" class="node">
<title>transaction&#45;error</title>
<ellipse fill="none" stroke="#696969" cx="248.2433" cy="-162" rx="68.6124" ry="18"/>
<text text-anchor="middle" x="248.2433" y="-158.1" font-family="Helvetica,sans-Serif" font-size="13.00" fill="#696969">transaction&#45;error</text>
</g>
<!-- transaction&#45;exec&#45;&gt;transaction&#45;error -->
<g id="edge9" class="edge">
<title>transaction&#45;exec&#45;&gt;transaction&#45;error</title>
<path fill="none" stroke="#dc143c" d="M180.9367,-228C195.7623,-228 207.2635,-228 207.2635,-228 207.2635,-228 207.2635,-186.6475 207.2635,-186.6475"/>
<polygon fill="#dc143c" stroke="#dc143c" points="210.7636,-186.6475 207.2635,-176.6475 203.7636,-186.6476 210.7636,-186.6475"/>
</g>
<!-- transaction&#45;completed -->
<g id="node7" class="node">
<title>transaction&#45;completed</title>
<ellipse fill="none" stroke="#696969" cx="341.2433" cy="-90" rx="88.6647" ry="18"/>
<text text-anchor="middle" x="341.2433" y="-86.1" font-family="Helvetica,sans-Serif" font-size="13.00" fill="#696969">transaction&#45;completed</text>
</g>
<!-- transaction&#45;exec&#45;&gt;transaction&#45;completed -->
<g id="edge8" class="edge">
<title>transaction&#45;exec&#45;&gt;transaction&#45;completed</title>
<path fill="none" stroke="#0000ff" d="M181.0264,-240C251.5715,-240 354.4749,-240 354.4749,-240 354.4749,-240 354.4749,-118.0935 354.4749,-118.0935"/>
<polygon fill="#0000ff" stroke="#0000ff" points="357.975,-118.0935 354.4749,-108.0935 350.975,-118.0935 357.975,-118.0935"/>
</g>
<!-- transaction&#45;exec&#45;&gt;confirm&#45;cancel -->
<g id="edge13" class="edge">
<title>transaction&#45;exec&#45;&gt;confirm&#45;cancel</title>
<path fill="none" stroke="#a0522d" d="M90.9427,-217.1995C90.9427,-217.1995 90.9427,-115.3828 90.9427,-115.3828"/>
<polygon fill="#a0522d" stroke="#a0522d" points="94.4428,-115.3828 90.9427,-105.3828 87.4428,-115.3828 94.4428,-115.3828"/>
</g>
<!-- transaction&#45;exec&#45;&gt;transaction&#45;exit -->
<g id="edge21" class="edge">
<title>transaction&#45;exec&#45;&gt;transaction&#45;exit</title>
<path fill="none" stroke="#ff8c00" d="M53.4046,-226.4473C53.4046,-187.0593 53.4046,-7 53.4046,-7 53.4046,-7 62.4884,-7 62.4884,-7"/>
<polygon fill="#ff8c00" stroke="#ff8c00" points="62.4884,-10.5001 72.4884,-7 62.4883,-3.5001 62.4884,-10.5001"/>
</g>
<!-- transaction&#45;error&#45;&gt;account&#45;selection -->
<g id="edge7" class="edge">
<title>transaction&#45;error&#45;&gt;account&#45;selection</title>
<path fill="none" stroke="#0000ff" d="M272.5941,-178.8807C272.5941,-178.8807 272.5941,-499.0887 272.5941,-499.0887"/>
<polygon fill="#0000ff" stroke="#0000ff" points="269.0942,-499.0887 272.5941,-509.0887 276.0942,-499.0888 269.0942,-499.0887"/>
</g>
<!-- transaction&#45;error&#45;&gt;confirm&#45;cancel -->
<g id="edge12" class="edge">
<title>transaction&#45;error&#45;&gt;confirm&#45;cancel</title>
<path fill="none" stroke="#a0522d" d="M209.1247,-147.0816C209.1247,-125.9923 209.1247,-90 209.1247,-90 209.1247,-90 195.202,-90 195.202,-90"/>
<polygon fill="#a0522d" stroke="#a0522d" points="195.202,-86.5001 185.202,-90 195.2019,-93.5001 195.202,-86.5001"/>
</g>
<!-- transaction&#45;error&#45;&gt;transaction&#45;exit -->
<g id="edge22" class="edge">
<title>transaction&#45;error&#45;&gt;transaction&#45;exit</title>
<path fill="none" stroke="#ff8c00" d="M230.8929,-144.3511C230.8929,-107.7578 230.8929,-27 230.8929,-27 230.8929,-27 188.96,-27 188.96,-27"/>
<polygon fill="#ff8c00" stroke="#ff8c00" points="188.9601,-23.5001 178.96,-27 188.96,-30.5001 188.9601,-23.5001"/>
</g>
<!-- transaction&#45;completed&#45;&gt;account&#45;selection -->
<g id="edge14" class="edge">
<title>transaction&#45;completed&#45;&gt;account&#45;selection</title>
<path fill="none" stroke="#0000ff" d="M392.1502,-104.8704C392.1502,-180.8333 392.1502,-522 392.1502,-522 392.1502,-522 304.792,-522 304.792,-522"/>
<polygon fill="#0000ff" stroke="#0000ff" points="304.792,-518.5001 294.792,-522 304.7919,-525.5001 304.792,-518.5001"/>
</g>
<!-- transaction&#45;completed&#45;&gt;transaction&#45;exit -->
<g id="edge16" class="edge">
<title>transaction&#45;completed&#45;&gt;transaction&#45;exit</title>
<path fill="none" stroke="#0000ff" d="M311.7159,-72.937C311.7159,-51.6456 311.7159,-18 311.7159,-18 311.7159,-18 197.5777,-18 197.5777,-18"/>
<polygon fill="#0000ff" stroke="#0000ff" points="197.5778,-14.5001 187.5777,-18 197.5777,-21.5001 197.5778,-14.5001"/>
</g>
<!-- transaction&#45;completed&#45;&gt;transaction&#45;exit -->
<g id="edge23" class="edge">
<title>transaction&#45;completed&#45;&gt;transaction&#45;exit</title>
<path fill="none" stroke="#ff8c00" d="M370.7707,-72.822C370.7707,-49.0452 370.7707,-9 370.7707,-9 370.7707,-9 188.7933,-9 188.7933,-9"/>
<polygon fill="#ff8c00" stroke="#ff8c00" points="188.7933,-5.5001 178.7933,-9 188.7933,-12.5001 188.7933,-5.5001"/>
</g>
<!-- confirm&#45;cancel&#45;&gt;account&#45;selection -->
<g id="edge15" class="edge">
<title>confirm&#45;cancel&#45;&gt;account&#45;selection</title>
<path fill="none" stroke="#0000ff" d="M120.5241,-108.0636C120.5241,-140.2085 120.5241,-204 120.5241,-204 120.5241,-204 229.0404,-204 229.0404,-204 229.0404,-204 229.0404,-493.9918 229.0404,-493.9918"/>
<polygon fill="#0000ff" stroke="#0000ff" points="225.5405,-493.9918 229.0404,-503.9918 232.5405,-493.9918 225.5405,-493.9918"/>
</g>
<!-- confirm&#45;cancel&#45;&gt;transaction&#45;exit -->
<g id="edge17" class="edge">
<title>confirm&#45;cancel&#45;&gt;transaction&#45;exit</title>
<path fill="none" stroke="#0000ff" d="M143.8707,-72.937C143.8707,-72.937 143.8707,-45.4407 143.8707,-45.4407"/>
<polygon fill="#0000ff" stroke="#0000ff" points="147.3708,-45.4406 143.8707,-35.4407 140.3708,-45.4407 147.3708,-45.4406"/>
</g>
<!-- confirm&#45;cancel&#45;&gt;transaction&#45;exit -->
<g id="edge24" class="edge">
<title>confirm&#45;cancel&#45;&gt;transaction&#45;exit</title>
<path fill="none" stroke="#ff8c00" d="M102.6159,-72.937C102.6159,-72.937 102.6159,-45.4407 102.6159,-45.4407"/>
<polygon fill="#ff8c00" stroke="#ff8c00" points="106.116,-45.4406 102.6159,-35.4407 99.116,-45.4407 106.116,-45.4406"/>
</g>
<!-- none -->
<g id="node10" class="node">
<title>none</title>
<ellipse fill="none" stroke="#696969" cx="222.2433" cy="-594" rx="27.8051" ry="18"/>
<text text-anchor="middle" x="222.2433" y="-590.1" font-family="Helvetica,sans-Serif" font-size="13.00" fill="#696969">none</text>
</g>
<!-- none&#45;&gt;account&#45;selection -->
<g id="edge1" class="edge">
<title>none&#45;&gt;account&#45;selection</title>
<path fill="none" stroke="#0000ff" d="M222.2433,-575.8314C222.2433,-575.8314 222.2433,-550.4133 222.2433,-550.4133"/>
<polygon fill="#0000ff" stroke="#0000ff" points="225.7434,-550.4132 222.2433,-540.4133 218.7434,-550.4133 225.7434,-550.4132"/>
</g>
</g>
</svg>
