<?xml version="1.0" encoding="UTF-8" standalone="no"?>
<!DOCTYPE svg PUBLIC "-//W3C//DTD SVG 1.1//EN"
 "http://www.w3.org/Graphics/SVG/1.1/DTD/svg11.dtd">
<!-- Generated by graphviz version 2.40.1 (20161225.0304)
 -->
<!-- Title: fsm Pages: 1 -->
<svg width="419pt" height="620pt"
 viewBox="0.00 0.00 418.71 620.00" xmlns="http://www.w3.org/2000/svg" xmlns:xlink="http://www.w3.org/1999/xlink">
<g id="graph0" class="graph" transform="scale(1 1) rotate(0) translate(4 616)">
<title>fsm</title>
<polygon fill="#ffffff" stroke="transparent" points="-4,4 -4,-616 414.71,-616 414.71,4 -4,4"/>
<!-- account&#45;selection -->
<g id="node1" class="node">
<title>account&#45;selection</title>
<ellipse fill="none" stroke="#696969" cx="72.1277" cy="-522" rx="72.2556" ry="18"/>
<text text-anchor="middle" x="72.1277" y="-518.1" font-family="Helvetica,sans-Serif" font-size="13.00" fill="#696969">account&#45;selection</text>
</g>
<!-- amount -->
<g id="node2" class="node">
<title>amount</title>
<ellipse fill="none" stroke="#696969" cx="226.1277" cy="-450" rx="36.5836" ry="18"/>
<text text-anchor="middle" x="226.1277" y="-446.1" font-family="Helvetica,sans-Serif" font-size="13.00" fill="#696969">amount</text>
</g>
<!-- account&#45;selection&#45;&gt;amount -->
<g id="edge2" class="edge">
<title>account&#45;selection&#45;&gt;amount</title>
<path fill="none" stroke="#0000ff" d="M140.5712,-516C181.7008,-516 226.1277,-516 226.1277,-516 226.1277,-516 226.1277,-478.0348 226.1277,-478.0348"/>
<polygon fill="#0000ff" stroke="#0000ff" points="229.6278,-478.0348 226.1277,-468.0348 222.6278,-478.0348 229.6278,-478.0348"/>
</g>
<!-- confirm&#45;cancel -->
<g id="node8" class="node">
<title>confirm&#45;cancel</title>
<ellipse fill="none" stroke="#696969" cx="115.1277" cy="-90" rx="61.7645" ry="18"/>
<text text-anchor="middle" x="115.1277" y="-86.1" font-family="Helvetica,sans-Serif" font-size="13.00" fill="#696969">confirm&#45;cancel</text>
</g>
<!-- account&#45;selection&#45;&gt;confirm&#45;cancel -->
<g id="edge10" class="edge">
<title>account&#45;selection&#45;&gt;confirm&#45;cancel</title>
<path fill="none" stroke="#a0522d" d="M98.7505,-505.0651C98.7505,-505.0651 98.7505,-117.7626 98.7505,-117.7626"/>
<polygon fill="#a0522d" stroke="#a0522d" points="102.2506,-117.7625 98.7505,-107.7626 95.2506,-117.7626 102.2506,-117.7625"/>
</g>
<!-- transaction&#45;exit -->
<g id="node9" class="node">
<title>transaction&#45;exit</title>
<ellipse fill="none" stroke="#696969" cx="205.1277" cy="-18" rx="64.2269" ry="18"/>
<text text-anchor="middle" x="205.1277" y="-14.1" font-family="Helvetica,sans-Serif" font-size="13.00" fill="#696969">transaction&#45;exit</text>
</g>
<!-- account&#45;selection&#45;&gt;transaction&#45;exit -->
<g id="edge19" class="edge">
<title>account&#45;selection&#45;&gt;transaction&#45;exit</title>
<path fill="none" stroke="#ff8c00" d="M26.6228,-507.9941C26.6228,-426.5945 26.6228,-18 26.6228,-18 26.6228,-18 130.9355,-18 130.9355,-18"/>
<polygon fill="#ff8c00" stroke="#ff8c00" points="130.9355,-21.5001 140.9355,-18 130.9355,-14.5001 130.9355,-21.5001"/>
</g>
<!-- transaction&#45;validate -->
<g id="node3" class="node">
<title>transaction&#45;validate</title>
<ellipse fill="none" stroke="#696969" cx="226.1277" cy="-378" rx="79.4874" ry="18"/>
<text text-anchor="middle" x="226.1277" y="-374.1" font-family="Helvetica,sans-Serif" font-size="13.00" fill="#696969">transaction&#45;validate</text>
</g>
<!-- amount&#45;&gt;transaction&#45;validate -->
<g id="edge3" class="edge">
<title>amount&#45;&gt;transaction&#45;validate</title>
<path fill="none" stroke="#0000ff" d="M213.9471,-432.937C213.9471,-432.937 213.9471,-405.9453 213.9471,-405.9453"/>
<polygon fill="#0000ff" stroke="#0000ff" points="217.4472,-405.9452 213.9471,-395.9453 210.4472,-405.9453 217.4472,-405.9452"/>
</g>
<!-- amount&#45;&gt;confirm&#45;cancel -->
<g id="edge11" class="edge">
<title>amount&#45;&gt;confirm&#45;cancel</title>
<path fill="none" stroke="#a0522d" d="M191.5797,-444C161.1048,-444 121.5029,-444 121.5029,-444 121.5029,-444 121.5029,-118.0416 121.5029,-118.0416"/>
<polygon fill="#a0522d" stroke="#a0522d" points="125.003,-118.0416 121.5029,-108.0416 118.003,-118.0416 125.003,-118.0416"/>
</g>
<!-- amount&#45;&gt;transaction&#45;exit -->
<g id="edge20" class="edge">
<title>amount&#45;&gt;transaction&#45;exit</title>
<path fill="none" stroke="#ff8c00" d="M191.5425,-456C137.6967,-456 39.9342,-456 39.9342,-456 39.9342,-456 39.9342,-27 39.9342,-27 39.9342,-27 139.2007,-27 139.2007,-27"/>
<polygon fill="#ff8c00" stroke="#ff8c00" points="139.2007,-30.5001 149.2007,-27 139.2007,-23.5001 139.2007,-30.5001"/>
</g>
<!-- transaction&#45;validate&#45;&gt;amount -->
<g id="edge4" class="edge">
<title>transaction&#45;validate&#45;&gt;amount</title>
<path fill="none" stroke="#dc143c" d="M238.3083,-395.7978C238.3083,-395.7978 238.3083,-422.9028 238.3083,-422.9028"/>
<polygon fill="#dc143c" stroke="#dc143c" points="234.8084,-422.9027 238.3083,-432.9028 241.8084,-422.9028 234.8084,-422.9027"/>
</g>
<!-- transaction&#45;verify -->
<g id="node4" class="node">
<title>transaction&#45;verify</title>
<ellipse fill="none" stroke="#696969" cx="274.1277" cy="-306" rx="70.5598" ry="18"/>
<text text-anchor="middle" x="274.1277" y="-302.1" font-family="Helvetica,sans-Serif" font-size="13.00" fill="#696969">transaction&#45;verify</text>
</g>
<!-- transaction&#45;validate&#45;&gt;transaction&#45;verify -->
<g id="edge5" class="edge">
<title>transaction&#45;validate&#45;&gt;transaction&#45;verify</title>
<path fill="none" stroke="#0000ff" d="M254.3595,-360.937C254.3595,-360.937 254.3595,-333.4407 254.3595,-333.4407"/>
<polygon fill="#0000ff" stroke="#0000ff" points="257.8596,-333.4406 254.3595,-323.4407 250.8596,-333.4407 257.8596,-333.4406"/>
</g>
<!-- transaction&#45;validate&#45;&gt;confirm&#45;cancel -->
<g id="edge12" class="edge">
<title>transaction&#45;validate&#45;&gt;confirm&#45;cancel</title>
<path fill="none" stroke="#a0522d" d="M161.9471,-367.4084C161.9471,-367.4084 161.9471,-111.9423 161.9471,-111.9423"/>
<polygon fill="#a0522d" stroke="#a0522d" points="165.4472,-111.9422 161.9471,-101.9423 158.4472,-111.9423 165.4472,-111.9422"/>
</g>
<!-- transaction&#45;exec -->
<g id="node5" class="node">
<title>transaction&#45;exec</title>
<ellipse fill="none" stroke="#696969" cx="292.1277" cy="-234" rx="68.6281" ry="18"/>
<text text-anchor="middle" x="292.1277" y="-230.1" font-family="Helvetica,sans-Serif" font-size="13.00" fill="#696969">transaction&#45;exec</text>
</g>
<!-- transaction&#45;verify&#45;&gt;transaction&#45;exec -->
<g id="edge6" class="edge">
<title>transaction&#45;verify&#45;&gt;transaction&#45;exec</title>
<path fill="none" stroke="#0000ff" d="M284.2355,-287.8314C284.2355,-287.8314 284.2355,-261.9134 284.2355,-261.9134"/>
<polygon fill="#0000ff" stroke="#0000ff" points="287.7356,-261.9134 284.2355,-251.9134 280.7356,-261.9134 287.7356,-261.9134"/>
</g>
<!-- transaction&#45;verify&#45;&gt;confirm&#45;cancel -->
<g id="edge14" class="edge">
<title>transaction&#45;verify&#45;&gt;confirm&#45;cancel</title>
<path fill="none" stroke="#a0522d" d="M210.0866,-298.2769C210.0866,-260.3901 210.0866,-96 210.0866,-96 210.0866,-96 183.6446,-96 183.6446,-96"/>
<polygon fill="#a0522d" stroke="#a0522d" points="183.6446,-92.5001 173.6446,-96 183.6446,-99.5001 183.6446,-92.5001"/>
</g>
<!-- transaction&#45;verify&#45;&gt;transaction&#45;exit -->
<g id="edge21" class="edge">
<title>transaction&#45;verify&#45;&gt;transaction&#45;exit</title>
<path fill="none" stroke="#ff8c00" d="M216.8251,-295.4084C216.8251,-295.4084 216.8251,-45.9544 216.8251,-45.9544"/>
<polygon fill="#ff8c00" stroke="#ff8c00" points="220.3252,-45.9544 216.8251,-35.9544 213.3252,-45.9545 220.3252,-45.9544"/>
</g>
<!-- transaction&#45;error -->
<g id="node6" class="node">
<title>transaction&#45;error</title>
<ellipse fill="none" stroke="#696969" cx="292.1277" cy="-162" rx="68.6124" ry="18"/>
<text text-anchor="middle" x="292.1277" y="-158.1" font-family="Helvetica,sans-Serif" font-size="13.00" fill="#696969">transaction&#45;error</text>
</g>
<!-- transaction&#45;exec&#45;&gt;transaction&#45;error -->
<g id="edge9" class="edge">
<title>transaction&#45;exec&#45;&gt;transaction&#45;error</title>
<path fill="none" stroke="#dc143c" d="M269.2756,-216.937C269.2756,-216.937 269.2756,-189.4407 269.2756,-189.4407"/>
<polygon fill="#dc143c" stroke="#dc143c" points="272.7757,-189.4406 269.2756,-179.4407 265.7757,-189.4407 272.7757,-189.4406"/>
</g>
<!-- transaction&#45;completed -->
<g id="node7" class="node">
<title>transaction&#45;completed</title>
<ellipse fill="none" stroke="#696969" cx="322.1277" cy="-90" rx="88.6647" ry="18"/>
<text text-anchor="middle" x="322.1277" y="-86.1" font-family="Helvetica,sans-Serif" font-size="13.00" fill="#696969">transaction&#45;completed</text>
</g>
<!-- transaction&#45;exec&#45;&gt;transaction&#45;completed -->
<g id="edge8" class="edge">
<title>transaction&#45;exec&#45;&gt;transaction&#45;completed</title>
<path fill="none" stroke="#0000ff" d="M360.9299,-234C370.6221,-234 377.3645,-234 377.3645,-234 377.3645,-234 377.3645,-114.3337 377.3645,-114.3337"/>
<polygon fill="#0000ff" stroke="#0000ff" points="380.8646,-114.3337 377.3645,-104.3337 373.8646,-114.3338 380.8646,-114.3337"/>
</g>
<!-- transaction&#45;error&#45;&gt;transaction&#45;exec -->
<g id="edge7" class="edge">
<title>transaction&#45;error&#45;&gt;transaction&#45;exec</title>
<path fill="none" stroke="#0000ff" d="M314.9797,-179.063C314.9797,-179.063 314.9797,-206.5593 314.9797,-206.5593"/>
<polygon fill="#0000ff" stroke="#0000ff" points="311.4798,-206.5593 314.9797,-216.5593 318.4798,-206.5594 311.4798,-206.5593"/>
</g>
<!-- transaction&#45;error&#45;&gt;confirm&#45;cancel -->
<g id="edge13" class="edge">
<title>transaction&#45;error&#45;&gt;confirm&#45;cancel</title>
<path fill="none" stroke="#a0522d" d="M226.8961,-156.3904C226.8961,-138.5057 226.8961,-84 226.8961,-84 226.8961,-84 183.6306,-84 183.6306,-84"/>
<polygon fill="#a0522d" stroke="#a0522d" points="183.6307,-80.5001 173.6306,-84 183.6306,-87.5001 183.6307,-80.5001"/>
</g>
<!-- transaction&#45;error&#45;&gt;transaction&#45;exit -->
<g id="edge22" class="edge">
<title>transaction&#45;error&#45;&gt;transaction&#45;exit</title>
<path fill="none" stroke="#ff8c00" d="M230.2207,-154.2579C230.2207,-154.2579 230.2207,-44.5977 230.2207,-44.5977"/>
<polygon fill="#ff8c00" stroke="#ff8c00" points="233.7208,-44.5977 230.2207,-34.5977 226.7208,-44.5977 233.7208,-44.5977"/>
</g>
<!-- transaction&#45;completed&#45;&gt;account&#45;selection -->
<g id="edge15" class="edge">
<title>transaction&#45;completed&#45;&gt;account&#45;selection</title>
<path fill="none" stroke="#0000ff" d="M394.0372,-100.827C394.0372,-168.2754 394.0372,-528 394.0372,-528 394.0372,-528 150.3964,-528 150.3964,-528"/>
<polygon fill="#0000ff" stroke="#0000ff" points="150.3965,-524.5001 140.3964,-528 150.3964,-531.5001 150.3965,-524.5001"/>
</g>
<!-- transaction&#45;completed&#45;&gt;transaction&#45;exit -->
<g id="edge17" class="edge">
<title>transaction&#45;completed&#45;&gt;transaction&#45;exit</title>
<path fill="none" stroke="#0000ff" d="M245.4439,-80.8812C245.4439,-80.8812 245.4439,-42.2491 245.4439,-42.2491"/>
<polygon fill="#0000ff" stroke="#0000ff" points="248.944,-42.249 245.4439,-32.2491 241.944,-42.2491 248.944,-42.249"/>
</g>
<!-- transaction&#45;completed&#45;&gt;transaction&#45;exit -->
<g id="edge23" class="edge">
<title>transaction&#45;completed&#45;&gt;transaction&#45;exit</title>
<path fill="none" stroke="#ff8c00" d="M257.3425,-77.4586C257.3425,-77.4586 257.3425,-38.5272 257.3425,-38.5272"/>
<polygon fill="#ff8c00" stroke="#ff8c00" points="260.8426,-38.5272 257.3425,-28.5272 253.8426,-38.5273 260.8426,-38.5272"/>
</g>
<!-- confirm&#45;cancel&#45;&gt;account&#45;selection -->
<g id="edge16" class="edge">
<title>confirm&#45;cancel&#45;&gt;account&#45;selection</title>
<path fill="none" stroke="#0000ff" d="M75.998,-104.3734C75.998,-104.3734 75.998,-493.8593 75.998,-493.8593"/>
<polygon fill="#0000ff" stroke="#0000ff" points="72.4981,-493.8592 75.998,-503.8593 79.4981,-493.8593 72.4981,-493.8592"/>
</g>
<!-- confirm&#45;cancel&#45;&gt;transaction&#45;exit -->
<g id="edge18" class="edge">
<title>confirm&#45;cancel&#45;&gt;transaction&#45;exit</title>
<path fill="none" stroke="#0000ff" d="M165.0113,-79.0647C165.0113,-79.0647 165.0113,-42.2692 165.0113,-42.2692"/>
<polygon fill="#0000ff" stroke="#0000ff" points="168.5114,-42.2692 165.0113,-32.2692 161.5114,-42.2693 168.5114,-42.2692"/>
</g>
<!-- confirm&#45;cancel&#45;&gt;transaction&#45;exit -->
<g id="edge24" class="edge">
<title>confirm&#45;cancel&#45;&gt;transaction&#45;exit</title>
<path fill="none" stroke="#ff8c00" d="M153.0128,-75.4297C153.0128,-75.4297 153.0128,-38.7986 153.0128,-38.7986"/>
<polygon fill="#ff8c00" stroke="#ff8c00" points="156.5129,-38.7986 153.0128,-28.7986 149.5129,-38.7986 156.5129,-38.7986"/>
</g>
<!-- transaction&#45;exit&#45;&gt;account&#45;selection -->
<g id="edge25" class="edge">
<title>transaction&#45;exit&#45;&gt;account&#45;selection</title>
<path fill="none" stroke="#0000ff" d="M149.3888,-9C92.7545,-9 13.3114,-9 13.3114,-9 13.3114,-9 13.3114,-501.2853 13.3114,-501.2853"/>
<polygon fill="#0000ff" stroke="#0000ff" points="9.8115,-501.2852 13.3114,-511.2853 16.8115,-501.2853 9.8115,-501.2852"/>
</g>
<!-- none -->
<g id="node10" class="node">
<title>none</title>
<ellipse fill="none" stroke="#696969" cx="72.1277" cy="-594" rx="27.8051" ry="18"/>
<text text-anchor="middle" x="72.1277" y="-590.1" font-family="Helvetica,sans-Serif" font-size="13.00" fill="#696969">none</text>
</g>
<!-- none&#45;&gt;account&#45;selection -->
<g id="edge1" class="edge">
<title>none&#45;&gt;account&#45;selection</title>
<path fill="none" stroke="#0000ff" d="M72.1277,-575.8314C72.1277,-575.8314 72.1277,-550.4133 72.1277,-550.4133"/>
<polygon fill="#0000ff" stroke="#0000ff" points="75.6278,-550.4132 72.1277,-540.4133 68.6278,-550.4133 75.6278,-550.4132"/>
</g>
</g>
</svg>
