<?xml version="1.0" encoding="UTF-8" standalone="no"?>
<!DOCTYPE svg PUBLIC "-//W3C//DTD SVG 1.1//EN"
 "http://www.w3.org/Graphics/SVG/1.1/DTD/svg11.dtd">
<!-- Generated by graphviz version 2.40.1 (20161225.0304)
 -->
<!-- Title: fsm Pages: 1 -->
<svg width="790pt" height="736pt"
 viewBox="0.00 0.00 790.47 736.49" xmlns="http://www.w3.org/2000/svg" xmlns:xlink="http://www.w3.org/1999/xlink">
<g id="graph0" class="graph" transform="scale(1 1) rotate(0) translate(4 732.4932)">
<title>fsm</title>
<polygon fill="#ffffff" stroke="transparent" points="-4,4 -4,-732.4932 786.4727,-732.4932 786.4727,4 -4,4"/>
<!-- account&#45;selection -->
<g id="node1" class="node">
<title>account&#45;selection</title>
<ellipse fill="none" stroke="#696969" cx="166" cy="-626.9941" rx="72.2556" ry="18"/>
<text text-anchor="middle" x="166" y="-623.0941" font-family="Helvetica,sans-Serif" font-size="13.00" fill="#696969">account&#45;selection</text>
</g>
<!-- amount -->
<g id="node2" class="node">
<title>amount</title>
<ellipse fill="none" stroke="#696969" cx="245" cy="-543.4951" rx="36.5836" ry="18"/>
<text text-anchor="middle" x="245" y="-539.5951" font-family="Helvetica,sans-Serif" font-size="13.00" fill="#696969">amount</text>
</g>
<!-- account&#45;selection&#45;&gt;amount -->
<g id="edge2" class="edge">
<title>account&#45;selection&#45;&gt;amount</title>
<path fill="none" stroke="#0000ff" d="M182.7539,-609.2861C194.2638,-597.1207 209.6825,-580.8239 222.2944,-567.4938"/>
<polygon fill="#0000ff" stroke="#0000ff" points="225.0147,-569.7113 229.3449,-560.0417 219.9298,-564.9004 225.0147,-569.7113"/>
<text text-anchor="middle" x="230.1772" y="-582.9941" font-family="Arial" font-size="10.00" fill="#696969"> provide </text>
</g>
<!-- confirm&#45;cancel -->
<g id="node8" class="node">
<title>confirm&#45;cancel</title>
<ellipse fill="none" stroke="#696969" cx="261" cy="-101.499" rx="61.7645" ry="18"/>
<text text-anchor="middle" x="261" y="-97.599" font-family="Helvetica,sans-Serif" font-size="13.00" fill="#696969">confirm&#45;cancel</text>
</g>
<!-- account&#45;selection&#45;&gt;confirm&#45;cancel -->
<g id="edge10" class="edge">
<title>account&#45;selection&#45;&gt;confirm&#45;cancel</title>
<path fill="none" stroke="#a0522d" d="M119.7125,-613.0707C88.506,-600.4966 53,-578.4989 53,-543.4951 53,-543.4951 53,-543.4951 53,-209.499 53,-145.5175 131.4771,-119.3886 192.0234,-108.7508"/>
<polygon fill="#a0522d" stroke="#a0522d" points="192.6543,-112.1941 201.9519,-107.1143 191.5158,-105.2873 192.6543,-112.1941"/>
<text text-anchor="middle" x="70.2314" y="-374.2466" font-family="Arial" font-size="10.00" fill="#696969"> cancel </text>
</g>
<!-- transaction&#45;exit -->
<g id="node9" class="node">
<title>transaction&#45;exit</title>
<ellipse fill="none" stroke="#696969" cx="443" cy="-18" rx="64.2269" ry="18"/>
<text text-anchor="middle" x="443" y="-14.1" font-family="Helvetica,sans-Serif" font-size="13.00" fill="#696969">transaction&#45;exit</text>
</g>
<!-- account&#45;selection&#45;&gt;transaction&#45;exit -->
<g id="edge20" class="edge">
<title>account&#45;selection&#45;&gt;transaction&#45;exit</title>
<path fill="none" stroke="#ff8c00" d="M99.4379,-619.8957C53.2555,-610.8473 0,-590.2721 0,-543.4951 0,-543.4951 0,-543.4951 0,-101.499 0,-64.1983 245.6715,-36.147 371.1162,-24.2549"/>
<polygon fill="#ff8c00" stroke="#ff8c00" points="371.7732,-27.7087 381.4027,-23.2904 371.1197,-20.7393 371.7732,-27.7087"/>
<text text-anchor="middle" x="19.1748" y="-332.4971" font-family="Arial" font-size="10.00" fill="#696969"> timeout </text>
</g>
<!-- transaction&#45;validate -->
<g id="node3" class="node">
<title>transaction&#45;validate</title>
<ellipse fill="none" stroke="#696969" cx="353" cy="-459.9961" rx="79.4874" ry="18"/>
<text text-anchor="middle" x="353" y="-456.0961" font-family="Helvetica,sans-Serif" font-size="13.00" fill="#696969">transaction&#45;validate</text>
</g>
<!-- amount&#45;&gt;transaction&#45;validate -->
<g id="edge3" class="edge">
<title>amount&#45;&gt;transaction&#45;validate</title>
<path fill="none" stroke="#0000ff" d="M278.2879,-535.9533C304.8819,-529.2179 339.122,-518.7077 348,-507.4951 352.1886,-502.2051 354.2196,-495.4787 355.0414,-488.7637"/>
<polygon fill="#0000ff" stroke="#0000ff" points="358.5526,-488.5665 355.4737,-478.4289 351.5587,-488.2739 358.5526,-488.5665"/>
<text text-anchor="middle" x="372.1772" y="-499.4951" font-family="Arial" font-size="10.00" fill="#696969"> provide </text>
</g>
<!-- amount&#45;&gt;confirm&#45;cancel -->
<g id="edge11" class="edge">
<title>amount&#45;&gt;confirm&#45;cancel</title>
<path fill="none" stroke="#a0522d" d="M244.1069,-525.3046C242.413,-489.7896 238.7909,-408.7263 237.5371,-340.4971 235.8734,-249.9578 243.4367,-227.3123 255,-137.499 255.3257,-134.9696 255.6972,-132.3456 256.0922,-129.7193"/>
<polygon fill="#a0522d" stroke="#a0522d" points="259.5595,-130.2018 257.6842,-119.7742 252.6475,-129.0953 259.5595,-130.2018"/>
<text text-anchor="middle" x="255.2314" y="-332.4971" font-family="Arial" font-size="10.00" fill="#696969"> cancel </text>
</g>
<!-- amount&#45;&gt;confirm&#45;cancel -->
<g id="edge13" class="edge">
<title>amount&#45;&gt;confirm&#45;cancel</title>
<path fill="none" stroke="#a0522d" d="M239.5676,-525.5247C229.2625,-490.3908 207.22,-409.9574 199.5371,-340.4971 190.845,-261.9129 226.6242,-172.4303 247.2754,-128.5987"/>
<polygon fill="#a0522d" stroke="#a0522d" points="250.4901,-129.9898 251.6756,-119.4615 244.1833,-126.9526 250.4901,-129.9898"/>
<text text-anchor="middle" x="217.2314" y="-332.4971" font-family="Arial" font-size="10.00" fill="#696969"> cancel </text>
</g>
<!-- amount&#45;&gt;transaction&#45;exit -->
<g id="edge21" class="edge">
<title>amount&#45;&gt;transaction&#45;exit</title>
<path fill="none" stroke="#ff8c00" d="M280.306,-538.4521C311.3908,-533.218 357.4287,-523.5079 395,-507.4951 583.5536,-427.1342 643.6232,-366.3648 713,-173.499 745.6488,-82.7361 601.8178,-42.9699 511.5188,-27.1933"/>
<polygon fill="#ff8c00" stroke="#ff8c00" points="512.0445,-23.7326 501.6014,-25.5187 510.879,-30.6349 512.0445,-23.7326"/>
<text text-anchor="middle" x="689.1748" y="-290.7476" font-family="Arial" font-size="10.00" fill="#696969"> timeout </text>
</g>
<!-- transaction&#45;validate&#45;&gt;amount -->
<g id="edge4" class="edge">
<title>transaction&#45;validate&#45;&gt;amount</title>
<path fill="none" stroke="#dc143c" d="M294.366,-472.4131C280.8366,-477.7189 267.5773,-485.268 257.8477,-495.9961 252.9893,-501.353 249.9392,-508.3613 248.0327,-515.3429"/>
<polygon fill="#dc143c" stroke="#dc143c" points="244.5593,-514.8581 245.9803,-525.3572 251.4168,-516.2635 244.5593,-514.8581"/>
<text text-anchor="middle" x="301.0762" y="-499.4951" font-family="Arial" font-size="10.00" fill="#696969"> transaction&#45;invalid </text>
</g>
<!-- transaction&#45;verify -->
<g id="node4" class="node">
<title>transaction&#45;verify</title>
<ellipse fill="none" stroke="#696969" cx="377" cy="-376.4971" rx="70.5598" ry="18"/>
<text text-anchor="middle" x="377" y="-372.5971" font-family="Helvetica,sans-Serif" font-size="13.00" fill="#696969">transaction&#45;verify</text>
</g>
<!-- transaction&#45;validate&#45;&gt;transaction&#45;verify -->
<g id="edge5" class="edge">
<title>transaction&#45;validate&#45;&gt;transaction&#45;verify</title>
<path fill="none" stroke="#0000ff" d="M358.2076,-441.878C361.3526,-430.9362 365.4258,-416.7653 368.9756,-404.415"/>
<polygon fill="#0000ff" stroke="#0000ff" points="372.4038,-405.1575 371.8025,-394.5798 365.6762,-403.2238 372.4038,-405.1575"/>
<text text-anchor="middle" x="385.1772" y="-415.9961" font-family="Arial" font-size="10.00" fill="#696969"> provide </text>
</g>
<!-- transaction&#45;validate&#45;&gt;confirm&#45;cancel -->
<g id="edge12" class="edge">
<title>transaction&#45;validate&#45;&gt;confirm&#45;cancel</title>
<path fill="none" stroke="#a0522d" d="M332.75,-442.3188C320.2679,-430.1853 305.1399,-412.9814 297,-394.4971 257.1933,-304.1029 256.9187,-183.756 259.215,-129.7847"/>
<polygon fill="#a0522d" stroke="#a0522d" points="262.72,-129.766 259.7141,-119.6065 255.7284,-129.423 262.72,-129.766"/>
<text text-anchor="middle" x="289.2314" y="-290.7476" font-family="Arial" font-size="10.00" fill="#696969"> cancel </text>
</g>
<!-- transaction&#45;exec -->
<g id="node5" class="node">
<title>transaction&#45;exec</title>
<ellipse fill="none" stroke="#696969" cx="474" cy="-292.998" rx="68.6281" ry="18"/>
<text text-anchor="middle" x="474" y="-289.098" font-family="Helvetica,sans-Serif" font-size="13.00" fill="#696969">transaction&#45;exec</text>
</g>
<!-- transaction&#45;verify&#45;&gt;transaction&#45;exec -->
<g id="edge6" class="edge">
<title>transaction&#45;verify&#45;&gt;transaction&#45;exec</title>
<path fill="none" stroke="#0000ff" d="M397.0985,-359.196C411.2749,-346.9927 430.45,-330.4865 446.1061,-317.0096"/>
<polygon fill="#0000ff" stroke="#0000ff" points="448.6319,-319.4535 453.9273,-310.2769 444.0651,-314.1483 448.6319,-319.4535"/>
<text text-anchor="middle" x="450.1772" y="-332.4971" font-family="Arial" font-size="10.00" fill="#696969"> provide </text>
</g>
<!-- transaction&#45;verify&#45;&gt;transaction&#45;exit -->
<g id="edge22" class="edge">
<title>transaction&#45;verify&#45;&gt;transaction&#45;exit</title>
<path fill="none" stroke="#ff8c00" d="M380.3637,-358.2263C391.1326,-299.7318 424.8131,-116.7871 437.8108,-46.1866"/>
<polygon fill="#ff8c00" stroke="#ff8c00" points="441.2746,-46.7025 439.6431,-36.234 434.3903,-45.435 441.2746,-46.7025"/>
<text text-anchor="middle" x="429.1748" y="-207.2485" font-family="Arial" font-size="10.00" fill="#696969"> timeout </text>
</g>
<!-- transaction&#45;error -->
<g id="node6" class="node">
<title>transaction&#45;error</title>
<ellipse fill="none" stroke="#696969" cx="540" cy="-209.499" rx="68.6124" ry="18"/>
<text text-anchor="middle" x="540" y="-205.599" font-family="Helvetica,sans-Serif" font-size="13.00" fill="#696969">transaction&#45;error</text>
</g>
<!-- transaction&#45;exec&#45;&gt;transaction&#45;error -->
<g id="edge9" class="edge">
<title>transaction&#45;exec&#45;&gt;transaction&#45;error</title>
<path fill="none" stroke="#dc143c" d="M471.2629,-274.6099C470.7956,-265.2403 471.7462,-254.0518 477.084,-245.499 480.8444,-239.4737 486.0046,-234.3554 491.7647,-230.037"/>
<polygon fill="#dc143c" stroke="#dc143c" points="494.1053,-232.687 500.5399,-224.27 490.2608,-226.8372 494.1053,-232.687"/>
<text text-anchor="middle" x="516.458" y="-248.998" font-family="Arial" font-size="10.00" fill="#696969"> transaction&#45;error </text>
</g>
<!-- transaction&#45;completed -->
<g id="node7" class="node">
<title>transaction&#45;completed</title>
<ellipse fill="none" stroke="#696969" cx="623" cy="-155.499" rx="88.6647" ry="18"/>
<text text-anchor="middle" x="623" y="-151.599" font-family="Helvetica,sans-Serif" font-size="13.00" fill="#696969">transaction&#45;completed</text>
</g>
<!-- transaction&#45;exec&#45;&gt;transaction&#45;completed -->
<g id="edge8" class="edge">
<title>transaction&#45;exec&#45;&gt;transaction&#45;completed</title>
<path fill="none" stroke="#0000ff" d="M529.7039,-282.4607C561.0787,-273.4362 597.8984,-257.0068 618,-227.499 626.5448,-214.9559 628.1231,-198.1638 627.4143,-183.9516"/>
<polygon fill="#0000ff" stroke="#0000ff" points="630.8748,-183.3505 626.504,-173.6993 623.9022,-183.9697 630.8748,-183.3505"/>
<text text-anchor="middle" x="621.1772" y="-248.998" font-family="Arial" font-size="10.00" fill="#696969"> provide </text>
</g>
<!-- transaction&#45;exec&#45;&gt;confirm&#45;cancel -->
<g id="edge15" class="edge">
<title>transaction&#45;exec&#45;&gt;confirm&#45;cancel</title>
<path fill="none" stroke="#a0522d" d="M422.4388,-281.1099C389.8465,-271.3526 348.7105,-254.6211 320.5371,-227.499 312.9026,-220.1494 287.8312,-163.8419 272.7663,-129.0321"/>
<polygon fill="#a0522d" stroke="#a0522d" points="275.7958,-127.2182 268.6239,-119.4199 269.3673,-129.9886 275.7958,-127.2182"/>
<text text-anchor="middle" x="337.2314" y="-207.2485" font-family="Arial" font-size="10.00" fill="#696969"> cancel </text>
</g>
<!-- transaction&#45;exec&#45;&gt;transaction&#45;exit -->
<g id="edge23" class="edge">
<title>transaction&#45;exec&#45;&gt;transaction&#45;exit</title>
<path fill="none" stroke="#ff8c00" d="M470.2471,-274.9979C467.6233,-261.8789 464.2072,-243.6494 462,-227.499 453.167,-162.8655 447.4102,-86.433 444.7372,-46.1338"/>
<polygon fill="#ff8c00" stroke="#ff8c00" points="448.2197,-45.7499 444.0797,-35.9975 441.2344,-46.2031 448.2197,-45.7499"/>
<text text-anchor="middle" x="474.1748" y="-153.2485" font-family="Arial" font-size="10.00" fill="#696969"> timeout </text>
</g>
<!-- transaction&#45;error&#45;&gt;account&#45;selection -->
<g id="edge7" class="edge">
<title>transaction&#45;error&#45;&gt;account&#45;selection</title>
<path fill="none" stroke="#0000ff" d="M585.4236,-223.1228C597.0573,-228.4868 608.631,-235.7631 617,-245.499 631.3466,-262.1889 631,-270.9895 631,-292.998 631,-543.4951 631,-543.4951 631,-543.4951 631,-582.215 378.0017,-609.2442 245.238,-620.7624"/>
<polygon fill="#0000ff" stroke="#0000ff" points="244.7773,-617.289 235.1131,-621.631 245.3757,-624.2634 244.7773,-617.289"/>
<text text-anchor="middle" x="650.7363" y="-415.9961" font-family="Arial" font-size="10.00" fill="#696969"> another </text>
</g>
<!-- transaction&#45;error&#45;&gt;confirm&#45;cancel -->
<g id="edge14" class="edge">
<title>transaction&#45;error&#45;&gt;confirm&#45;cancel</title>
<path fill="none" stroke="#a0522d" d="M481.5849,-199.9399C452.4199,-194.1355 416.9602,-185.4946 386.5371,-173.499 353.438,-160.4483 318.5444,-139.8048 293.9695,-123.9619"/>
<polygon fill="#a0522d" stroke="#a0522d" points="295.6907,-120.9056 285.4049,-118.3652 291.8614,-126.7655 295.6907,-120.9056"/>
<text text-anchor="middle" x="403.2314" y="-153.2485" font-family="Arial" font-size="10.00" fill="#696969"> cancel </text>
</g>
<!-- transaction&#45;error&#45;&gt;transaction&#45;exit -->
<g id="edge24" class="edge">
<title>transaction&#45;error&#45;&gt;transaction&#45;exit</title>
<path fill="none" stroke="#ff8c00" d="M530.8745,-191.4833C513.7879,-157.7507 476.8827,-84.8918 456.7621,-45.1694"/>
<polygon fill="#ff8c00" stroke="#ff8c00" points="459.6716,-43.1677 452.0306,-35.8284 453.427,-46.3308 459.6716,-43.1677"/>
<text text-anchor="middle" x="512.1748" y="-99.2485" font-family="Arial" font-size="10.00" fill="#696969"> timeout </text>
</g>
<!-- transaction&#45;completed&#45;&gt;account&#45;selection -->
<g id="edge16" class="edge">
<title>transaction&#45;completed&#45;&gt;account&#45;selection</title>
<path fill="none" stroke="#0000ff" d="M645.2898,-172.9887C679.993,-202.3696 743,-265.279 743,-334.7476 743,-543.4951 743,-543.4951 743,-543.4951 743,-592.9545 406.6395,-615.5639 247.5475,-623.4916"/>
<polygon fill="#0000ff" stroke="#0000ff" points="247.1468,-620.007 237.3302,-623.9927 247.4897,-626.9986 247.1468,-620.007"/>
<text text-anchor="middle" x="762.7363" y="-415.9961" font-family="Arial" font-size="10.00" fill="#696969"> another </text>
</g>
<!-- transaction&#45;completed&#45;&gt;transaction&#45;exit -->
<g id="edge18" class="edge">
<title>transaction&#45;completed&#45;&gt;transaction&#45;exit</title>
<path fill="none" stroke="#0000ff" d="M623.1954,-137.4502C622.686,-122.3245 620.3435,-100.5329 612,-83.499 604.0485,-67.2655 599.5898,-63.1494 584,-54 562.0726,-41.1311 535.5958,-32.8167 511.5349,-27.4647"/>
<polygon fill="#0000ff" stroke="#0000ff" points="512.2503,-24.0387 501.7455,-25.4171 510.817,-30.8904 512.2503,-24.0387"/>
<text text-anchor="middle" x="640.1772" y="-99.2485" font-family="Arial" font-size="10.00" fill="#696969"> provide </text>
</g>
<!-- transaction&#45;completed&#45;&gt;transaction&#45;exit -->
<g id="edge25" class="edge">
<title>transaction&#45;completed&#45;&gt;transaction&#45;exit</title>
<path fill="none" stroke="#ff8c00" d="M594.5947,-138.2827C586.2317,-132.7064 577.2839,-126.2159 569.6504,-119.499 540.0909,-93.4892 541.2908,-77.899 510,-54 502.5247,-48.2906 494.0218,-42.9711 485.642,-38.2667"/>
<polygon fill="#ff8c00" stroke="#ff8c00" points="487.1143,-35.0841 476.6519,-33.4139 483.7892,-41.244 487.1143,-35.0841"/>
<text text-anchor="middle" x="588.1748" y="-99.2485" font-family="Arial" font-size="10.00" fill="#696969"> timeout </text>
</g>
<!-- confirm&#45;cancel&#45;&gt;account&#45;selection -->
<g id="edge17" class="edge">
<title>confirm&#45;cancel&#45;&gt;account&#45;selection</title>
<path fill="none" stroke="#0000ff" d="M218.4694,-114.6984C177.9217,-130.2426 123,-160.3657 123,-209.499 123,-543.4951 123,-543.4951 123,-543.4951 123,-564.4071 133.792,-585.3227 144.563,-600.9897"/>
<polygon fill="#0000ff" stroke="#0000ff" points="141.7637,-603.0915 150.476,-609.1204 147.425,-598.9743 141.7637,-603.0915"/>
<text text-anchor="middle" x="142.7363" y="-374.2466" font-family="Arial" font-size="10.00" fill="#696969"> another </text>
</g>
<!-- confirm&#45;cancel&#45;&gt;transaction&#45;exit -->
<g id="edge19" class="edge">
<title>confirm&#45;cancel&#45;&gt;transaction&#45;exit</title>
<path fill="none" stroke="#0000ff" d="M264.7616,-83.2422C267.7556,-73.1984 272.976,-61.3236 281.8818,-54 296.1983,-42.227 337.1756,-33.1609 374.2195,-27.0715"/>
<polygon fill="#0000ff" stroke="#0000ff" points="375.2106,-30.4581 384.538,-25.4332 374.1128,-23.5447 375.2106,-30.4581"/>
<text text-anchor="middle" x="292.5591" y="-57.499" font-family="Arial" font-size="10.00" fill="#696969"> exit </text>
</g>
<!-- confirm&#45;cancel&#45;&gt;transaction&#45;exit -->
<g id="edge26" class="edge">
<title>confirm&#45;cancel&#45;&gt;transaction&#45;exit</title>
<path fill="none" stroke="#ff8c00" d="M282.5837,-84.3743C295.8594,-74.4681 313.5532,-62.3498 330.6504,-54 347.8097,-45.6198 367.3722,-38.5687 385.3115,-32.9901"/>
<polygon fill="#ff8c00" stroke="#ff8c00" points="386.5213,-36.2811 395.0852,-30.0433 384.5005,-29.579 386.5213,-36.2811"/>
<text text-anchor="middle" x="349.1748" y="-57.499" font-family="Arial" font-size="10.00" fill="#696969"> timeout </text>
</g>
<!-- none -->
<g id="node10" class="node">
<title>none</title>
<ellipse fill="none" stroke="#696969" cx="166" cy="-710.4932" rx="27.8051" ry="18"/>
<text text-anchor="middle" x="166" y="-706.5932" font-family="Helvetica,sans-Serif" font-size="13.00" fill="#696969">none</text>
</g>
<!-- none&#45;&gt;account&#45;selection -->
<g id="edge1" class="edge">
<title>none&#45;&gt;account&#45;selection</title>
<path fill="none" stroke="#0000ff" d="M166,-692.3751C166,-681.5427 166,-667.5455 166,-655.2831"/>
<polygon fill="#0000ff" stroke="#0000ff" points="169.5001,-655.0768 166,-645.0768 162.5001,-655.0769 169.5001,-655.0768"/>
<text text-anchor="middle" x="175.1699" y="-666.4932" font-family="Arial" font-size="10.00" fill="#696969"> init </text>
</g>
</g>
</svg>
